<svg width="60" height="30" viewBox="0 0 60 30" fill="none" xmlns="http://www.w3.org/2000/svg">
  <g clip-path="url(#clip0_1_3)">
    <path
      d="M37.6024 22.0794C37.5605 21.5535 37.6899 21.0517 37.8699 20.5707C37.95 20.3565 38.1503 20.1872 38.3134 19.9757C38.421 19.929 38.5244 19.9243 38.5993 19.8757C39 19.6156 39.4301 19.4352 39.9197 19.3542C40.3185 19.253 40.6694 19.3707 41.0316 19.5051C41.0813 19.4701 41.1384 19.4364 41.1513 19.3902C41.2836 18.9148 41.5713 18.5909 42.0475 18.4414C42.082 18.4306 42.1097 18.398 42.1608 18.3792C42.6279 18.2802 43.0607 18.3449 43.4747 18.5248C43.501 18.1768 43.5249 17.8616 43.5582 17.5307C43.7725 16.596 44.2734 15.8682 45.0205 15.2843C45.5615 14.9137 46.141 14.7121 46.8051 14.7076C46.9724 14.7228 47.1195 14.7299 47.2652 14.7476C47.7369 14.8051 48.1487 15.0188 48.554 15.2484C48.8364 15.515 49.1331 15.7687 49.3942 16.0548C49.4953 16.1656 49.5153 16.3501 49.5738 16.5005C49.5853 16.53 49.6111 16.5823 49.6185 16.5803C49.6606 16.569 49.7127 16.5546 49.7368 16.5227C50.0968 16.0464 50.5932 15.8437 51.1652 15.8997C51.5531 15.9376 51.9309 16.0795 52.3162 16.2097C52.5064 16.3441 52.6936 16.4435 52.8809 16.543C52.8809 16.543 52.877 16.5448 52.8789 16.5601C52.9438 16.6119 53.0067 16.6484 53.0696 16.685C53.1118 16.7215 53.154 16.7579 53.2005 16.8254C53.2636 17.0226 53.3205 17.1905 53.5376 17.2059C53.6247 17.4365 53.7328 17.6619 53.7919 17.8994C53.8358 18.076 53.8159 18.2684 53.8257 18.4804C54.2048 18.38 54.5714 18.2829 54.9776 18.1888C55.3007 18.1902 55.5842 18.1885 55.8676 18.1869C56.1005 18.2525 56.3333 18.3181 56.5755 18.4158C56.8503 18.594 57.1157 18.7403 57.3812 18.8866C57.3812 18.8866 57.3771 18.8882 57.379 18.9035C57.4433 18.955 57.5058 18.9913 57.5682 19.0276C57.5682 19.0276 57.5643 19.0293 57.5659 19.0438C57.6893 19.2308 57.7921 19.4257 58.0368 19.4511C58.1449 19.562 58.2458 19.681 58.3625 19.7818C58.5697 19.9607 58.482 20.2341 58.591 20.4461C58.708 20.6738 58.7003 20.7092 58.6831 20.953C58.6888 21.2915 58.6892 21.5945 58.6897 21.8974C58.6623 22.1666 58.6349 22.4357 58.6083 22.6968C58.8006 22.7896 58.9959 22.8837 59.1999 23.0106C59.2714 23.0802 59.3343 23.1171 59.3971 23.154C59.4243 23.1754 59.4515 23.1967 59.4824 23.2483C59.5811 23.3934 59.6762 23.5083 59.7713 23.6231C59.8515 23.7481 59.9316 23.873 60.0293 23.9989C60.0469 24.4384 60.0469 24.8769 60.0332 25.3318C59.9847 25.3606 59.9248 25.3663 59.9192 25.3868C59.8807 25.5274 59.8826 25.6863 59.8176 25.8114C59.5385 26.3483 59.187 26.8291 58.6607 27.1559C58.4368 27.295 58.2115 27.4316 57.9868 27.5694C57.6036 27.7829 57.1841 27.8268 56.7236 27.8383C56.638 27.8576 56.5852 27.8709 56.5324 27.8842C56.5111 27.8867 56.4897 27.8891 56.4472 27.8702C56.4013 27.8329 56.3768 27.8033 56.352 27.803C55.9824 27.7991 55.6128 27.7964 55.2433 27.8018C55.2037 27.8023 55.1648 27.8554 55.1256 27.8841C55.1042 27.8866 55.0828 27.8892 55.0315 27.8766C54.9153 27.8565 54.8291 27.8516 54.7429 27.8466C54.1127 27.815 53.48 27.8074 52.8535 27.7412C52.5603 27.7103 52.2838 27.5454 51.9912 27.4789C51.6083 27.3918 51.2169 27.342 50.8155 27.2402C50.5145 27.1978 50.2271 27.1911 49.9396 27.1867C49.9341 27.1866 49.9282 27.2133 49.9225 27.2275C49.7368 27.2616 49.5497 27.2893 49.3658 27.3313C49.0497 27.4035 48.737 27.4914 48.4201 27.5593C48.2346 27.5991 48.0422 27.6058 47.8552 27.64C47.4186 27.72 46.9833 27.8077 46.5076 27.8916C46.362 27.9578 46.2121 27.735 46.1281 27.943C46.1281 27.943 46.1274 27.9394 46.1191 27.9439C46.0968 27.9544 46.0863 27.9642 46.0792 27.9776C46.0286 27.9802 45.978 27.9828 45.904 27.9648C45.7621 27.8689 45.6488 27.8298 45.5643 27.9898C45.3216 28.0036 45.0782 28.0358 44.8363 28.0266C44.4998 28.0138 44.1632 27.9799 43.8292 27.9354C43.6284 27.9087 43.4339 27.8375 43.2341 27.7997C43.1058 27.7753 42.9729 27.7752 42.8926 27.7684C42.777 27.7199 42.7043 27.6852 42.6287 27.6584C42.4586 27.5981 42.2902 27.5281 42.1153 27.4874C41.924 27.4429 41.7269 27.4123 41.531 27.4017C41.1825 27.3828 40.8257 27.3359 40.4853 27.3869C39.9214 27.4715 39.3722 27.6563 38.808 27.7372C38.4409 27.7899 38.0577 27.7405 37.6823 27.723C37.485 27.7137 37.2891 27.6747 37.0829 27.6194C36.8892 27.4956 36.7043 27.403 36.521 27.3073C35.8881 26.9769 35.4168 26.4969 35.1472 25.8276C35.1195 25.7588 35.0604 25.7026 35.0171 25.6273C34.9725 25.4981 34.9267 25.3823 34.8809 25.2664C34.8786 25.2452 34.8763 25.224 34.8951 25.1814C34.9782 24.9414 35.0448 24.7225 34.8812 24.5161C34.8788 24.4804 34.8764 24.4446 34.8866 24.3847C34.9084 24.3487 34.9153 24.3357 34.9198 24.3213C34.9198 24.269 34.9198 24.2167 34.9198 24.1643C34.9114 24.1638 34.9031 24.1632 34.8947 24.1627C34.8838 24.195 34.8729 24.2273 34.8618 24.2595C34.8544 24.2621 34.8473 24.2648 34.8402 24.2674C34.8535 24.1884 34.8667 24.1094 34.88 24.0304C34.9034 24.0435 34.9267 24.0565 34.8972 24.04C34.9806 23.8964 35.0632 23.7543 35.1646 23.5937C35.2352 23.5322 35.3022 23.4987 35.3367 23.4445C35.6217 22.9957 36.0158 22.6997 36.5302 22.5601C36.5772 22.5474 36.611 22.4861 36.6509 22.4474C36.6509 22.4474 36.6543 22.4474 36.6684 22.4497C36.7203 22.4388 36.7581 22.4256 36.7959 22.4125C36.8172 22.4101 36.8385 22.4077 36.8806 22.4257C37.0301 22.5174 37.1567 22.5646 37.265 22.4128C37.2865 22.4102 37.3079 22.4077 37.3555 22.4192C37.4747 22.476 37.5677 22.5188 37.6694 22.5656C37.6973 22.4515 37.7105 22.3534 37.7455 22.2638C37.8049 22.1118 37.7442 22.0678 37.6024 22.0794ZM41.0642 20.2499C41.0642 20.2499 41.065 20.2474 41.0621 20.2142C40.9768 20.164 40.8964 20.1004 40.8051 20.0658C40.4832 19.9439 40.1519 19.9323 39.8196 20.0189C39.2788 20.1599 38.7519 20.346 38.3984 20.8066C37.9716 21.3625 37.9601 22.3841 38.3283 22.9969C38.3889 23.0978 38.4021 23.2273 38.41 23.3518C38.4011 23.355 38.3923 23.3582 38.3477 23.3527C38.1099 23.2787 37.8735 23.2001 37.6342 23.1314C36.8091 22.8947 36.0616 23.2342 35.6934 24.0094C35.1973 25.0539 35.8485 26.3345 37.0579 26.6593C37.4419 26.7082 37.8317 26.8236 38.2086 26.7908C38.8326 26.7366 39.4506 26.598 40.067 26.4743C40.6987 26.3474 41.3198 26.352 41.93 26.5653C42.2085 26.6626 42.4689 26.8252 42.753 26.8905C43.8101 27.1337 44.8803 27.3011 45.9668 27.1358C46.6016 27.0392 47.2288 26.8924 47.8973 26.7663C48.4609 26.6547 49.0244 26.543 49.6287 26.434C50.1684 26.3581 50.7061 26.3631 51.2766 26.4833C52.3437 26.7972 53.4301 27.0255 54.5342 27.1514C55.4088 27.2511 56.2903 27.2959 57.1639 27.1335C57.9899 26.98 58.699 26.6244 59.1658 25.8863C59.6147 25.1766 59.6131 24.3688 59.1519 23.7614C58.9774 23.5315 58.7532 23.3747 58.4483 23.452C58.2389 23.5051 58.0389 23.5953 57.8007 23.6751C57.344 23.8221 57.2133 23.7269 57.2958 23.2679C57.376 23.1532 57.4519 23.035 57.5374 22.9243C57.9895 22.3385 58.1349 21.6785 57.9908 20.9603C57.8137 20.0778 57.2324 19.5193 56.4685 19.1134C55.8437 18.7813 55.2036 18.7213 54.5588 19.0281C54.2081 19.1949 53.8756 19.4015 53.5425 19.6027C53.3655 19.7096 53.1984 19.7351 53.0172 19.5969C53.0152 19.5639 53.0131 19.5308 53.0155 19.4603C53.0738 19.1781 53.1452 18.8978 53.1878 18.6132C53.2781 18.0099 53.1483 17.4771 52.636 17.0906C52.2483 16.7981 51.8073 16.6212 51.33 16.5497C50.6143 16.4424 50.2861 16.6505 50.0711 17.3431C49.9603 17.7 49.874 18.0645 49.7585 18.4512C49.4171 18.665 49.3959 18.6543 49.355 18.2506C49.3528 18.2288 49.3391 18.2081 49.3234 18.1449C49.2878 17.8752 49.2648 17.6032 49.2144 17.3363C48.9811 16.101 47.9119 15.2573 46.6865 15.3329C45.3135 15.4176 44.1138 16.6576 44.1251 18.0487C44.1295 18.5778 44.2767 19.1057 44.352 19.6677C44.3019 19.7374 44.2518 19.807 44.1645 19.876C44.0739 19.8313 43.9689 19.8028 43.8962 19.738C43.7928 19.646 43.7152 19.5256 43.6231 19.4203C43.1696 18.9016 42.7894 18.7968 42.1781 19.0256C41.8955 19.1314 41.703 19.3213 41.6711 19.634C41.649 19.8498 41.6506 20.068 41.6274 20.2835C41.6195 20.3575 41.5685 20.4269 41.5032 20.4934C41.4189 20.4436 41.3346 20.3939 41.2367 20.3147C41.179 20.2922 41.1213 20.2698 41.0642 20.2499Z"
      fill="#97E2EE" />
    <path
      d="M7.45441 25.6803C7.44622 25.6825 7.43804 25.6847 7.411 25.6749C7.38023 25.6537 7.36705 25.647 7.3526 25.6427C7.3526 25.6427 7.33156 25.641 7.31609 25.6199C7.11214 25.5303 6.92451 25.4748 6.75059 25.6341C6.72919 25.6366 6.70779 25.6391 6.65561 25.6263C6.46288 25.6054 6.30093 25.5997 6.14792 25.5832C6.17673 25.5605 6.19699 25.5492 6.21616 25.5363C6.22031 25.5336 6.22055 25.525 6.24389 25.4572C6.03231 25.5054 5.85235 25.5464 5.67239 25.5874C5.63662 25.5899 5.60086 25.5924 5.5403 25.5823C5.48985 25.5755 5.46419 25.5814 5.43853 25.5874C5.417 25.5898 5.39547 25.5922 5.34741 25.5807C5.26677 25.5728 5.21267 25.5789 5.15857 25.585C5.01531 25.5718 4.87215 25.5572 4.72875 25.5457C4.52412 25.5292 4.31881 25.5198 4.11471 25.4985C3.82636 25.4684 3.53886 25.4302 3.25064 25.3685C3.23879 25.3184 3.22862 25.276 3.21561 25.2751C2.73966 25.2427 2.30016 25.0961 1.86958 24.8934C1.28165 24.6167 0.807528 24.2235 0.464085 23.67C0.426184 23.609 0.339895 23.5779 0.27605 23.5329C0.246522 23.4647 0.221814 23.3938 0.185832 23.3291C0.16032 23.2833 0.119577 23.246 0.0662542 23.204C0.0468749 22.624 0.0468749 22.0449 0.046875 21.4438C0.0812678 21.4326 0.11566 21.4433 0.178292 21.4643C0.244198 21.4471 0.300756 21.4278 0.316676 21.3909C0.529763 20.8976 0.914941 20.596 1.39834 20.3978C1.4526 20.3755 1.4958 20.3263 1.54413 20.2896C1.74805 20.2758 1.95188 20.2604 2.15594 20.249C2.24043 20.2443 2.32541 20.2482 2.4527 20.2482C2.43041 20.0529 2.40272 19.8747 2.39301 19.6956C2.38869 19.616 2.39627 19.5163 2.44043 19.4571C2.62449 19.21 2.64966 19.1703 2.66742 18.987C2.94317 18.763 3.1869 18.546 3.43434 18.3333C3.51829 18.2611 3.61161 18.1999 3.70065 18.1336C4.045 17.9922 4.39638 17.9636 4.76393 18.0345C5.09859 18.0991 5.43917 18.1325 5.77586 18.1875C5.88532 18.2054 5.99072 18.2481 6.13155 18.2837C6.18815 18.2441 6.23225 18.1995 6.2308 18.1564C6.22108 17.8676 6.20168 17.5791 6.18541 17.2905C6.16623 16.9942 6.21503 16.7179 6.44043 16.4632C6.53944 16.3983 6.65664 16.3789 6.56828 16.2441C6.56828 16.2441 6.57306 16.2289 6.59583 16.2354C6.66033 16.228 6.71064 16.2245 6.74243 16.1985C7.00619 15.9822 7.26841 15.7639 7.52523 15.5395C7.55335 15.515 7.54449 15.4481 7.55279 15.4008C7.55279 15.4008 7.55722 15.3858 7.58202 15.3934C7.75086 15.3968 7.93403 15.4557 7.92432 15.2038C8.40924 15.0734 8.88783 14.9044 9.38089 14.8236C9.86664 14.744 10.3507 14.8696 10.8202 15.0151C10.8701 15.0306 10.9232 15.0359 11.0008 15.0642C11.2479 15.2563 11.4691 15.4303 11.6377 15.5629C11.9186 15.1542 12.1446 14.7256 12.4654 14.3869C12.7763 14.0588 13.1846 13.8229 13.5633 13.5445C13.5834 13.5286 13.5902 13.5148 13.5955 13.5008C13.594 13.5007 13.5956 13.5035 13.613 13.508C14.3608 13.1756 15.1295 13.0121 15.9543 13.0088C16.4918 13.1025 17.0074 13.1912 17.5361 13.2899C17.7915 13.4201 18.0349 13.5385 18.2759 13.6615C18.4038 13.7267 18.5277 13.7999 18.6607 13.8838C18.791 14.025 18.9114 14.1547 19.0377 14.2783C19.1609 14.3988 19.2901 14.5131 19.4139 14.6467C19.611 15.0744 19.8108 15.4856 20.0113 15.9157C20.0592 16.2541 20.1008 16.5745 20.1591 16.8919C20.1687 16.9442 20.2441 17.0046 20.3016 17.0242C20.469 17.0809 20.6428 17.1188 20.8172 17.1794C21.1013 17.3529 21.3821 17.5112 21.6629 17.6695C21.6791 17.6695 21.6915 17.6763 21.7037 17.7174C21.9056 18.0265 22.1029 18.3089 22.3043 18.5884C22.3174 18.6068 22.3622 18.6023 22.3923 18.6085C22.3971 18.6421 22.402 18.6758 22.4061 18.7467C22.4064 19.0873 22.4074 19.3905 22.4084 19.6937C22.4183 19.8131 22.331 19.942 22.4435 20.0513C22.1485 20.107 22.3348 20.4033 22.1927 20.5542C22.0719 20.6823 22.2314 20.8215 22.3383 20.8407C22.628 20.8926 22.7405 21.1249 22.7991 21.3319C22.9112 21.7276 22.9549 22.1437 23.0114 22.5534C23.0262 22.6609 22.9836 22.7763 22.9473 22.9057C22.8811 22.9684 22.8126 23.0051 22.7923 23.0598C22.5614 23.6832 22.0981 24.0819 21.5352 24.3917C21.4408 24.4437 21.3657 24.5307 21.2816 24.6015C21.1569 24.6664 21.0323 24.7314 20.9074 24.796C20.8436 24.8291 20.7829 24.8776 20.715 24.8917C20.3154 24.9746 19.9151 25.0543 19.5132 25.1253C19.2068 25.1794 18.8989 25.23 18.5896 25.2614C18.3598 25.2847 18.1252 25.2608 17.8952 25.2833C17.67 25.3054 17.448 25.3599 17.2245 25.3994C17.1941 25.4047 17.163 25.4066 17.1321 25.4078C16.7459 25.4238 16.3596 25.4386 15.9734 25.4551C15.634 25.4697 15.2947 25.4861 14.9156 25.5013C14.8083 25.5141 14.7406 25.5273 14.6729 25.5406C14.6223 25.543 14.5718 25.5455 14.4972 25.5269C14.3133 25.4385 14.1539 25.3764 14.0186 25.5519C14.0186 25.5519 14.0167 25.5482 13.999 25.5482C13.8837 25.5613 13.7861 25.5744 13.6885 25.5875C13.6075 25.59 13.5266 25.5924 13.4203 25.5739C13.1429 25.3949 12.9308 25.5763 12.7042 25.6343C12.6536 25.6368 12.603 25.6393 12.5282 25.6205C12.2413 25.5887 11.9786 25.5772 11.7159 25.5713C11.7024 25.571 11.6879 25.6202 11.6739 25.6463C11.6218 25.6598 11.5698 25.6734 11.4859 25.6724C11.3238 25.6657 11.1936 25.6735 11.0634 25.6812C11.0277 25.6837 10.9919 25.6861 10.934 25.6787C10.8966 25.6602 10.8846 25.6644 10.8757 25.6816C10.8399 25.6839 10.8041 25.6863 10.7435 25.6761C10.6929 25.6694 10.6672 25.6754 10.6415 25.6814C10.5453 25.6838 10.449 25.6862 10.3268 25.6674C10.2761 25.6302 10.2515 25.6006 10.2266 25.6002C9.90266 25.5961 9.5786 25.5931 9.25474 25.5992C9.21567 25.5999 9.17762 25.6553 9.11946 25.6855C8.84012 25.6709 8.5805 25.6525 8.32059 25.6458C8.28236 25.6448 8.2427 25.6992 8.2037 25.7279C8.16793 25.7304 8.13216 25.733 8.07181 25.7229C8.02149 25.7156 7.99576 25.721 7.97003 25.7263C7.95572 25.7229 7.94141 25.7194 7.92112 25.6883C7.84347 25.5656 7.78268 25.5661 7.7349 25.6811C7.69911 25.6837 7.66332 25.6862 7.60076 25.675C7.53413 25.6676 7.49427 25.674 7.45441 25.6803ZM12.151 16.9135C12.0851 16.9321 12.0192 16.9508 11.9254 16.9652C11.9066 16.964 11.8879 16.9629 11.8409 16.9581C11.8317 16.9606 11.8226 16.9631 11.8132 16.9687C11.8132 16.9687 11.8154 16.9665 11.816 16.9335C11.7616 16.8579 11.7114 16.7788 11.6523 16.7071C11.3142 16.2973 10.9386 15.9222 10.3992 15.8119C9.44648 15.6171 8.54996 15.7765 7.74502 16.3403C7.19532 16.7253 6.92047 17.2534 6.93048 17.9357C6.93676 18.3635 6.91434 18.7928 6.88229 19.2198C6.85435 19.592 6.7048 19.6651 6.42843 19.4194C5.85738 18.9118 5.18236 18.8133 4.46213 18.8501C3.76039 18.8859 3.39147 19.1925 3.29149 19.8608C3.23285 20.2529 3.21993 20.6518 3.17261 21.073C3.12865 21.1242 3.0847 21.1754 3.00192 21.233C2.8401 21.2548 2.69212 21.2457 2.58427 21.0934C2.55656 21.0543 2.49501 21.0316 2.44449 21.0174C1.97534 20.8851 1.35334 21.1148 1.07368 21.5204C0.688672 22.0787 0.733716 22.8925 1.18228 23.5151C1.65256 24.1679 2.32579 24.5073 3.06726 24.7448C3.90354 25.0126 4.76418 24.9374 5.66452 24.9352C6.38077 24.9064 7.09698 24.8568 7.81329 24.8553C8.39629 24.8541 8.97911 24.9192 9.56255 24.9392C10.2851 24.9639 11.0084 24.9937 11.7309 24.983C12.7596 24.9677 13.7877 24.9177 14.8548 24.8835C14.9318 24.8718 15.0084 24.855 15.0859 24.8493C16.1735 24.7686 17.2619 24.6976 18.3487 24.6072C19.1437 24.541 19.9233 24.3876 20.6668 24.0871C21.2386 23.8559 21.7585 23.5548 22.1089 23.0178C22.4614 22.4777 22.4061 21.5949 21.6021 21.4186C21.5269 21.4021 21.4555 21.3655 21.3843 21.3336C21.1332 21.2211 21.0895 21.0937 21.2123 20.8516C21.343 20.594 21.4804 20.3392 21.5985 20.0759C21.8211 19.5792 21.8962 19.0722 21.6312 18.5651C21.2932 17.9183 20.6581 17.6668 19.9561 17.8869C19.7761 17.9434 19.5932 18.0604 19.3892 17.8804C19.3646 17.8119 19.34 17.7434 19.3384 17.6471C19.3616 17.5112 19.4088 17.3742 19.4027 17.2396C19.3928 17.0231 19.3503 16.8077 19.3172 16.5926C19.1224 15.3228 18.3941 14.4852 17.203 14.0583C15.9843 13.6215 14.8043 13.7969 13.6844 14.4005C13.13 14.6994 12.6757 15.1189 12.4821 15.745C12.3629 16.1303 12.2824 16.5275 12.187 16.922C12.187 16.922 12.1853 16.9189 12.151 16.9135Z"
      fill="#97E2EE" />
    <path
      d="M58.0062 27.5666C58.2114 27.4317 58.4368 27.295 58.6607 27.1559C59.1869 26.8292 59.5385 26.3483 59.8176 25.8114C59.8825 25.6863 59.8806 25.5274 59.9192 25.3868C59.9248 25.3663 59.9846 25.3607 60.0331 25.3538C60.0469 25.4551 60.0469 25.5508 60.0469 25.667C60.0004 25.7102 59.9157 25.7292 59.9131 25.7561C59.8516 26.3929 59.3842 26.7352 58.9459 27.0958C58.792 27.2225 58.6291 27.3444 58.4538 27.4373C58.325 27.5057 58.1694 27.5234 58.0062 27.5666Z"
      fill="#A0EDF9" />
    <path
      d="M13.5501 13.5466C13.1846 13.823 12.7762 14.0588 12.4654 14.3869C12.1445 14.7256 11.9185 15.1542 11.6377 15.5629C11.4691 15.4303 11.2479 15.2563 11.0195 15.0683C11.1097 14.9097 11.171 14.7686 11.1984 14.5799C11.237 14.3146 11.4367 14.0768 11.5075 13.8112C11.5827 13.5294 11.7257 13.2752 11.8178 13.0019C11.8904 12.7864 11.9713 12.5407 12.1173 12.3342C12.2557 12.1383 12.3211 11.8926 12.4417 11.682C12.645 11.3269 12.8525 10.9726 13.0838 10.6356C13.389 10.1908 13.7161 9.76091 14.0392 9.32873C14.2947 8.98696 14.5564 8.64969 14.8192 8.3134C15.4341 7.52632 16.1519 6.84289 16.9397 6.23225C17.3666 5.90134 17.7908 5.56508 18.2362 5.26035C18.5942 5.01537 18.9806 4.81126 19.3574 4.59437C19.7342 4.37753 20.11 4.1581 20.4959 3.95834C20.6736 3.86635 20.8767 3.8248 21.0638 3.74931C21.3646 3.62795 21.6574 3.48554 21.9616 3.37395C22.2938 3.25211 22.6365 3.15946 22.972 3.0462C23.2789 2.94258 23.577 2.80969 23.8885 2.72419C24.2025 2.638 24.527 2.58748 24.8489 2.53334C25.5298 2.41882 26.2123 2.31344 26.8938 2.20191C28.0569 2.01155 29.2303 2.04775 30.4 2.07001C31.0272 2.08195 31.6525 2.18618 32.2787 2.24856C33.2732 2.34764 34.2443 2.56737 35.212 2.80863C36.2187 3.05962 37.1983 3.39276 38.1497 3.80076C38.8518 4.10183 39.5446 4.42977 40.2193 4.78782C40.8072 5.09987 41.3655 5.46823 41.934 5.81643C42.4987 6.16232 42.9928 6.60195 43.5084 7.01311C43.7052 7.17005 43.9226 7.30128 44.1183 7.45952C44.1957 7.52215 44.2299 7.63543 44.3002 7.71016C44.6592 8.09166 45.008 8.48494 45.3923 8.83952C45.5976 9.02898 45.7415 9.25523 45.9133 9.465C46.1078 9.70247 46.3187 9.92658 46.5117 10.1652C46.6083 10.2845 46.6831 10.4219 46.7641 10.5534C46.9402 10.8394 47.1406 11.1148 47.2784 11.4184C47.358 11.5937 47.4297 11.7568 47.5456 11.9172C47.6742 12.0952 47.7174 12.3354 47.7952 12.5495C47.8753 12.7699 47.9561 12.9903 48.0297 13.2129C48.1177 13.479 48.2096 13.7447 48.2795 14.0157C48.3815 14.4107 48.4654 14.8103 48.5554 15.2282C48.1487 15.0188 47.7368 14.8052 47.2652 14.7477C47.1194 14.7299 46.9724 14.7228 46.8031 14.6905C46.4664 13.9576 46.2031 13.217 45.8291 12.5373C44.6375 10.3721 42.9157 8.68999 40.8804 7.32217C38.8645 5.96743 36.6542 5.051 34.2954 4.48174C32.1114 3.95464 29.901 3.77203 27.66 3.92964C26.1982 4.03244 24.7737 4.31401 23.3821 4.77109C20.9691 5.56365 18.8422 6.83297 17.0232 8.60566C16.0012 9.60167 15.1284 10.7221 14.4017 11.9501C14.1051 12.4514 13.8626 12.9847 13.5955 13.5035C13.5955 13.5035 13.5939 13.5007 13.5847 13.5049C13.5622 13.5183 13.5538 13.5309 13.5501 13.5466Z"
      fill="#FF7A9C" />
    <path
      d="M1.52549 20.2927C1.49578 20.3263 1.45258 20.3755 1.39832 20.3978C0.914914 20.5961 0.529736 20.8977 0.31665 21.391C0.300729 21.4278 0.244171 21.4471 0.193241 21.4697C0.129842 21.2963 0.18774 21.1735 0.32004 21.0602C0.491919 20.913 0.627647 20.7156 0.814969 20.5965C1.02458 20.4632 1.2745 20.3932 1.52549 20.2927Z"
      fill="#A0EDF9" />
    <path
      d="M3.6823 18.1367C3.61162 18.1999 3.51829 18.2611 3.43435 18.3333C3.1869 18.546 2.94318 18.763 2.68201 18.9805C2.76586 18.832 2.83719 18.6451 2.97214 18.5395C3.17981 18.3769 3.43114 18.2701 3.6823 18.1367Z"
      fill="#9AF2FC" />
    <path
      d="M7.53994 15.4094C7.54451 15.4481 7.55337 15.515 7.52525 15.5396C7.26843 15.764 7.00621 15.9823 6.74245 16.1985C6.71067 16.2246 6.66035 16.2281 6.60352 16.2332C6.66399 16.1304 6.72609 16.0196 6.81782 15.9457C7.04707 15.7609 7.28976 15.5927 7.53994 15.4094Z"
      fill="#A4F1FC" />
    <path
      d="M58.7076 21.9011C58.6892 21.5945 58.6887 21.2916 58.6889 20.9683C58.7124 20.8939 58.7353 20.8399 58.7766 20.7429C58.7766 21.1594 58.7767 21.5327 58.7759 21.906C58.7759 21.9114 58.7641 21.9223 58.7602 21.9213C58.748 21.9182 58.737 21.9106 58.7076 21.9011Z"
      fill="#A5F6FE" />
    <path
      d="M28.3957 2.01381C28.3692 2.00931 28.3563 2.00465 28.3567 2.00201C28.3581 1.99289 28.3641 1.97687 28.3684 1.97686C28.9806 1.97574 29.5929 1.97579 30.2053 2.01459C29.6086 2.01459 29.0119 2.01459 28.3957 2.01381Z"
      fill="#FF92BA" />
    <path
      d="M6.16737 17.3009C6.20171 17.5792 6.22112 17.8677 6.23084 18.1565C6.23229 18.1995 6.18819 18.2441 6.15008 18.2834C6.13976 17.9563 6.14452 17.6338 6.16737 17.3009Z"
      fill="#A4F5FD" />
    <path
      d="M57.3744 18.8719C57.1157 18.7403 56.8503 18.5941 56.5826 18.4314C56.8428 18.5624 57.1053 18.7097 57.3744 18.8719Z"
      fill="#A0EDF9" />
    <path
      d="M55.8617 18.1674C55.5842 18.1886 55.3007 18.1902 54.9976 18.1886C55.2705 18.1728 55.5631 18.1604 55.8617 18.1674Z"
      fill="#A2F3FA" />
    <path
      d="M52.8739 16.5282C52.6936 16.4436 52.5063 16.3441 52.3169 16.2283C52.4989 16.3123 52.6829 16.4129 52.8739 16.5282Z"
      fill="#9BEEF8" />
    <path
      d="M53.5525 17.1987C53.3205 17.1906 53.2636 17.0226 53.2052 16.8388C53.3551 16.9164 53.493 17.0229 53.5525 17.1987Z"
      fill="#9BEEF8" />
    <path
      d="M59.7731 23.6072C59.6761 23.5083 59.581 23.3935 59.4862 23.261C59.5875 23.3554 59.8428 23.3392 59.7731 23.6072Z"
      fill="#A4F1FC" />
    <path
      d="M58.031 19.4364C57.7921 19.4258 57.6893 19.2308 57.5668 19.0419C57.7191 19.1575 57.8721 19.2896 58.031 19.4364Z"
      fill="#A0EDF9" />
    <path
      d="M7.90753 15.1975C7.93404 15.4557 7.75087 15.3968 7.58948 15.391C7.67832 15.3178 7.78453 15.2545 7.90753 15.1975Z"
      fill="#A4F1FC" />
    <path
      d="M6.55511 16.2532C6.65661 16.379 6.5394 16.3983 6.44324 16.4454C6.46555 16.389 6.50376 16.3256 6.55511 16.2532Z"
      fill="#A4F1FC" />
    <path
      d="M57.5618 19.0133C57.5057 18.9913 57.4433 18.955 57.3799 18.9015C57.4377 18.9225 57.4966 18.9607 57.5618 19.0133Z"
      fill="#A0EDF9" />
    <path
      d="M53.063 16.6706C53.0067 16.6485 52.9438 16.6119 52.8798 16.5581C52.9379 16.5793 52.9972 16.6177 53.063 16.6706Z"
      fill="#9BEEF8" />
    <path
      d="M59.3906 23.1396C59.3343 23.1172 59.2715 23.0803 59.207 23.0261C59.265 23.0476 59.3245 23.0864 59.3906 23.1396Z"
      fill="#A4F1FC" />
    <path
      d="M20.8141 17.1642C20.6428 17.1189 20.469 17.081 20.3016 17.0242C20.2441 17.0047 20.1687 16.9442 20.1591 16.8919C20.1008 16.5745 20.0592 16.2541 20.025 15.9069C20.3441 15.601 20.6355 15.3047 20.9587 15.0482C22.3751 13.924 23.9644 13.1127 25.6838 12.5772C27.3265 12.0655 29.0137 11.8469 30.7404 11.9926C31.8685 12.0878 32.9582 12.3369 34.009 12.751C36.1343 13.5886 37.8742 14.9019 39.0428 16.8987C39.4873 17.6582 39.815 18.4658 39.9013 19.3541C39.4301 19.4352 38.9999 19.6156 38.5993 19.8757C38.5244 19.9244 38.421 19.929 38.3172 19.9586C38.2975 19.7246 38.158 19.5364 38.0753 19.3256C37.9485 19.0023 37.8756 18.6579 37.7798 18.2869C37.7247 18.1442 37.6616 18.0402 37.6161 17.9291C37.4004 17.4025 37.0649 16.9565 36.7065 16.5208C35.9167 15.5606 34.9168 14.888 33.8 14.376C33.6079 14.288 33.3879 14.2608 33.1808 14.2054C32.4402 14.0278 31.6996 13.8502 30.9573 13.6457C30.9046 13.5974 30.8536 13.5587 30.8025 13.5585C30.7207 13.558 30.6388 13.583 30.5569 13.5973C30.5569 13.5973 30.5608 13.5962 30.5578 13.582C30.4837 13.4707 30.4234 13.4725 30.3756 13.5876C30.2945 13.5902 30.2134 13.5928 30.102 13.5813C30.0177 13.5727 29.9635 13.5781 29.9093 13.5836C29.8416 13.5721 29.7728 13.5465 29.7062 13.5512C29.1002 13.5945 28.4932 13.6307 27.8892 13.6949C27.559 13.73 27.2056 13.7568 26.9173 13.8985C26.7355 13.9879 26.4951 13.854 26.3547 14.092C26.3114 14.1655 26.0908 14.118 25.9635 14.1616C25.5487 14.3037 25.1396 14.4627 24.7279 14.6142C24.5448 14.6815 24.3547 14.7333 24.1789 14.8159C24.0076 14.8964 23.8553 15.0169 23.6857 15.102C23.5123 15.1891 23.3194 15.2392 23.1505 15.3334C22.9116 15.4667 22.6689 15.6038 22.4598 15.7778C21.9431 16.2077 21.4446 16.6595 20.9108 17.1113C20.86 17.1348 20.837 17.1495 20.8141 17.1642Z"
      fill="#AA87E4" />
    <path
      d="M33.1899 14.2214C33.3879 14.2608 33.6079 14.288 33.8 14.376C34.9167 14.888 35.9166 15.5606 36.7064 16.5208C37.0648 16.9565 37.4004 17.4025 37.616 17.9291C37.6615 18.0402 37.7246 18.1442 37.7792 18.2699C37.686 18.1783 37.5736 18.0794 37.5035 17.9564C37.1576 17.3491 36.7472 16.7963 36.2814 16.2712C35.9879 15.9404 35.6069 15.7247 35.3204 15.3948C35.2282 15.2886 35.0374 15.271 34.9364 15.1687C34.7363 14.966 34.4794 14.885 34.2368 14.7668C34.0066 14.6546 33.7888 14.5171 33.5618 14.3978C33.4451 14.3365 33.3203 14.2904 33.1899 14.2214Z"
      fill="#B68FF0" />
    <path
      d="M0.278442 23.5514C0.339845 23.5779 0.426134 23.609 0.464034 23.6701C0.807477 24.2235 1.2816 24.6167 1.86953 24.8935C2.30011 25.0962 2.73961 25.2427 3.21556 25.2752C3.22856 25.276 3.23874 25.3184 3.24012 25.3515C2.92742 25.3295 2.62362 25.3055 2.32302 25.2603C2.24062 25.2479 2.17248 25.1595 2.08942 25.1282C1.97078 25.0835 1.84106 25.0681 1.72291 25.0224C1.6707 25.0022 1.63417 24.9397 1.5926 24.8944C1.56757 24.8672 1.55091 24.816 1.52306 24.81C0.967267 24.6901 0.699781 24.2313 0.381289 23.8362C0.324723 23.766 0.313206 23.6595 0.278442 23.5514Z"
      fill="#A2EEF9" />
    <path
      d="M35.0159 25.6406C35.0604 25.7027 35.1195 25.7588 35.1472 25.8276C35.4168 26.4969 35.8881 26.9769 36.521 27.3074C36.7043 27.4031 36.8892 27.4957 37.0746 27.6032C36.9671 27.6148 36.8543 27.6302 36.7512 27.6053C36.6756 27.587 36.6181 27.5048 36.5436 27.4698C35.9015 27.1679 35.375 26.7505 35.1048 26.0669C35.0522 25.9336 34.9839 25.8066 34.9404 25.6587C34.9773 25.6406 34.9966 25.6406 35.0159 25.6406Z"
      fill="#A0F0FA" />
    <path
      d="M21.2999 24.6046C21.3657 24.5307 21.4408 24.4437 21.5352 24.3917C22.0981 24.0819 22.5614 23.6832 22.7923 23.0598C22.8126 23.0052 22.8811 22.9684 22.9442 22.9227C22.8482 23.1772 22.7849 23.4748 22.6109 23.6773C22.3542 23.976 22.0265 24.217 21.7125 24.4614C21.607 24.5435 21.4511 24.5608 21.2999 24.6046Z"
      fill="#9BEEF8" />
    <path
      d="M36.632 22.4495C36.6109 22.4861 36.5771 22.5474 36.5302 22.5601C36.0158 22.6997 35.6217 22.9957 35.3366 23.4446C35.3022 23.4988 35.2352 23.5323 35.1667 23.5779C35.1379 23.5412 35.1026 23.4836 35.117 23.4653C35.3855 23.124 35.6514 22.7784 36.0918 22.6375C36.2675 22.5813 36.4395 22.5139 36.632 22.4495Z"
      fill="#9CEAF4" />
    <path
      d="M22.394 18.5894C22.3622 18.6024 22.3175 18.6068 22.3043 18.5885C22.1029 18.309 21.9057 18.0265 21.7065 17.7281C21.806 17.7784 21.9376 17.8241 22.0002 17.9165C22.1425 18.1267 22.4583 18.2372 22.394 18.5894Z"
      fill="#A0EDF9" />
    <path
      d="M9.13916 25.6855C9.17768 25.6554 9.21573 25.6 9.2548 25.5993C9.57866 25.5932 9.90272 25.5962 10.2267 25.6003C10.2516 25.6006 10.2762 25.6302 10.3065 25.6638C10.0555 25.6989 9.79901 25.7226 9.54204 25.7309C9.43928 25.7342 9.33542 25.7033 9.19913 25.6879C9.15718 25.6871 9.14817 25.6863 9.13916 25.6855Z"
      fill="#A2F3FA" />
    <path
      d="M55.1473 27.8871C55.1648 27.8554 55.2036 27.8024 55.2432 27.8018C55.6127 27.7964 55.9824 27.7991 56.3519 27.8031C56.3768 27.8033 56.4013 27.8329 56.4314 27.8665C56.0143 27.8861 55.5917 27.8881 55.1473 27.8871Z"
      fill="#A5F6FE" />
    <path
      d="M20.8173 17.1794C20.837 17.1495 20.86 17.1348 20.8962 17.1172C20.9573 17.1595 21.0001 17.2119 21.0537 17.2483C21.2503 17.3817 21.4505 17.5099 21.6561 17.6548C21.3821 17.5112 21.1013 17.3529 20.8173 17.1794Z"
      fill="#A0EDF9" />
    <path
      d="M37.5993 22.1C37.7442 22.0678 37.8049 22.1118 37.7455 22.2639C37.7105 22.3535 37.6972 22.4516 37.6693 22.5657C37.5677 22.5189 37.4747 22.476 37.3713 22.423C37.4284 22.4093 37.4959 22.406 37.5962 22.4011C37.5962 22.309 37.5962 22.2148 37.5993 22.1Z"
      fill="#A5F6FE" />
    <path
      d="M49.9442 27.2307C49.9282 27.2133 49.9341 27.1867 49.9396 27.1868C50.2271 27.1912 50.5145 27.1979 50.8059 27.2229C50.5286 27.239 50.2472 27.2365 49.9442 27.2307Z"
      fill="#A4F5FD" />
    <path
      d="M9.11948 25.6855C9.14812 25.6862 9.15713 25.6871 9.17965 25.6891C8.97009 25.705 8.74711 25.7214 8.5239 25.7335C8.43193 25.7384 8.33946 25.734 8.22546 25.7309C8.24271 25.6992 8.28237 25.6448 8.3206 25.6458C8.58052 25.6525 8.84013 25.6709 9.11948 25.6855Z"
      fill="#A5F6FE" />
    <path
      d="M11.6956 25.6437C11.688 25.6202 11.7025 25.5711 11.7159 25.5714C11.9787 25.5772 12.2413 25.5888 12.5096 25.6168C12.2492 25.6365 11.9832 25.6388 11.6956 25.6437Z"
      fill="#A4F5FD" />
    <path
      d="M34.8782 24.5357C35.0448 24.7225 34.9782 24.9415 34.8988 25.1658C34.8492 25.0643 34.7941 24.9577 34.7918 24.8499C34.7897 24.7524 34.8451 24.6536 34.8782 24.5357Z"
      fill="#A4F1FC" />
    <path d="M22.426 19.683C22.4073 19.3906 22.4064 19.0873 22.4068 18.764C22.42 19.0533 22.4319 19.3627 22.426 19.683Z"
      fill="#A4F5FD" />
    <path
      d="M10.9 25.7838C10.5131 25.7838 10.1474 25.7838 9.78165 25.7838C9.78152 25.7731 9.78138 25.7625 9.78125 25.7518C10.1832 25.7518 10.5852 25.7518 11.0346 25.7518C10.968 25.7706 10.9446 25.7771 10.9 25.7838Z"
      fill="#BDF0F3" />
    <path
      d="M9.07032 25.8272C8.68452 25.8275 8.31967 25.8275 7.95483 25.8275C7.95488 25.8157 7.95493 25.804 7.95497 25.7922C8.35512 25.7922 8.75527 25.7922 9.15542 25.7922C9.15665 25.7984 9.15788 25.8045 9.1591 25.8106C9.1365 25.816 9.11389 25.8214 9.07032 25.8272Z"
      fill="#BDF0F3" />
    <path
      d="M12.7249 25.6374C12.9308 25.5764 13.1429 25.395 13.4004 25.5702C13.1857 25.6051 12.9656 25.6228 12.7249 25.6374Z"
      fill="#A4F5FD" />
    <path
      d="M12.8774 25.731C12.5319 25.7339 12.2081 25.7339 11.8844 25.7339C11.8843 25.7227 11.8843 25.7115 11.8843 25.7003C12.2709 25.7003 12.6575 25.7003 13.0441 25.7003C13.0445 25.7096 13.0448 25.7189 13.0452 25.7282C12.9965 25.7282 12.9478 25.7282 12.8774 25.731Z"
      fill="#BDF0F3" />
    <path
      d="M6.77197 25.6371C6.92452 25.4748 7.11215 25.5303 7.30623 25.6163C7.139 25.6357 6.96617 25.6379 6.77197 25.6371Z"
      fill="#A5F6FE" />
    <path
      d="M5.69312 25.5904C5.85236 25.5464 6.03232 25.5054 6.2439 25.4572C6.22055 25.525 6.22031 25.5336 6.21616 25.5364C6.19699 25.5493 6.17674 25.5606 6.13557 25.5836C6.10602 25.5949 6.09777 25.5952 6.08952 25.5955C5.96429 25.5948 5.83906 25.5941 5.69312 25.5904Z"
      fill="#A4F5FD" />
    <path
      d="M14.0396 25.5496C14.1539 25.3765 14.3133 25.4386 14.4786 25.5232C14.3427 25.5427 14.2016 25.5449 14.0396 25.5496Z"
      fill="#A4F5FD" />
    <path
      d="M35.0171 25.6273C34.9965 25.6406 34.9773 25.6406 34.9435 25.6406C34.9109 25.5288 34.8927 25.4171 34.8777 25.2859C34.9267 25.3823 34.9725 25.4981 35.0171 25.6273Z"
      fill="#A4F1FC" />
    <path
      d="M37.2444 22.4098C37.1567 22.5646 37.0301 22.5174 36.8962 22.4296C37.0021 22.4108 37.113 22.4088 37.2444 22.4098Z"
      fill="#A5F6FE" />
    <path
      d="M30.5669 13.6144C30.6388 13.5831 30.7207 13.558 30.8025 13.5585C30.8536 13.5588 30.9046 13.5974 30.9461 13.6301C30.8167 13.6381 30.6968 13.6347 30.5669 13.6144Z"
      fill="#BB91F7" />
    <path
      d="M45.5845 27.9873C45.6488 27.8298 45.762 27.869 45.8853 27.9611C45.7949 27.9802 45.6998 27.9824 45.5845 27.9873Z"
      fill="#A4F5FD" />
    <path
      d="M6.09944 25.6133C6.09782 25.5952 6.10607 25.5949 6.12668 25.5944C6.30098 25.5997 6.46293 25.6054 6.63981 25.6226C6.47294 25.6332 6.29113 25.6322 6.09944 25.6133Z"
      fill="#A5F6FE" />
    <path
      d="M46.1481 27.9405C46.2121 27.7351 46.362 27.9578 46.4872 27.892C46.3939 27.9079 46.281 27.9229 46.1481 27.9405Z"
      fill="#A4F5FD" />
    <path
      d="M11.0842 25.6844C11.1937 25.6735 11.3239 25.6657 11.4684 25.6691C11.3568 25.6826 11.2309 25.6851 11.0842 25.6844Z"
      fill="#A2F3FA" />
    <path
      d="M30.3938 13.5905C30.4234 13.4725 30.4836 13.4707 30.5569 13.5839C30.51 13.5977 30.461 13.5955 30.3938 13.5905Z"
      fill="#BB91F7" />
    <path
      d="M7.7533 25.6842C7.7827 25.5661 7.84349 25.5656 7.91771 25.6766C7.87073 25.6907 7.8212 25.6889 7.7533 25.6842Z"
      fill="#A5F6FE" />
    <path
      d="M13.7081 25.5904C13.7861 25.5744 13.8837 25.5613 14.0009 25.5491C13.9229 25.5644 13.8253 25.5789 13.7081 25.5904Z"
      fill="#A4F5FD" />
    <path
      d="M54.7517 27.8637C54.8291 27.8516 54.9153 27.8566 55.0156 27.873C54.94 27.8832 54.8503 27.882 54.7517 27.8637Z"
      fill="#A5F6FE" />
    <path
      d="M14.6914 25.5435C14.7406 25.5274 14.8083 25.5142 14.8941 25.5015C14.8448 25.5169 14.7773 25.5316 14.6914 25.5435Z"
      fill="#A4F5FD" />
    <path
      d="M56.55 27.8873C56.5852 27.8709 56.638 27.8576 56.7079 27.845C56.6726 27.8606 56.6202 27.8755 56.55 27.8873Z"
      fill="#A5F6FE" />
    <path
      d="M5.17651 25.5893C5.21264 25.579 5.26673 25.5729 5.33145 25.577C5.29288 25.5893 5.24368 25.5915 5.17651 25.5893Z"
      fill="#A4F5FD" />
    <path
      d="M29.9271 13.5886C29.9635 13.5782 30.0177 13.5727 30.082 13.5778C30.0431 13.5901 29.994 13.5918 29.9271 13.5886Z"
      fill="#BB91F7" />
    <path
      d="M7.47144 25.6836C7.49424 25.674 7.53411 25.6676 7.58309 25.6713C7.55764 25.6831 7.52307 25.685 7.47144 25.6836Z"
      fill="#A5F6FE" />
    <path
      d="M36.7794 22.4095C36.7581 22.4257 36.7203 22.4388 36.6669 22.4503C36.6884 22.4345 36.7257 22.4205 36.7794 22.4095Z"
      fill="#A5F6FE" />
    <path
      d="M10.6566 25.6844C10.6672 25.6755 10.6929 25.6695 10.7258 25.6725C10.7126 25.6834 10.6922 25.6854 10.6566 25.6844Z"
      fill="#A2F3FA" />
    <path
      d="M7.98499 25.73C7.99573 25.721 8.02146 25.7157 8.05413 25.7193C8.04071 25.7301 8.02034 25.7318 7.98499 25.73Z"
      fill="#A5F6FE" />
    <path
      d="M5.45361 25.5904C5.46416 25.5814 5.48982 25.5755 5.52265 25.5786C5.50945 25.5895 5.48909 25.5915 5.45361 25.5904Z"
      fill="#A4F5FD" />
    <path
      d="M46.0915 27.9791C46.0863 27.9642 46.0968 27.9544 46.1208 27.9442C46.122 27.9535 46.113 27.9671 46.0915 27.9791Z"
      fill="#A4F5FD" />
    <path
      d="M10.887 25.6844C10.8846 25.6644 10.8967 25.6602 10.9164 25.6752C10.9208 25.6815 10.8983 25.6872 10.887 25.6844Z"
      fill="#A2F3FA" />
    <path
      d="M7.35681 25.6549C7.36705 25.647 7.38024 25.6537 7.39863 25.672C7.3904 25.6764 7.37571 25.6717 7.35681 25.6549Z"
      fill="#A5F6FE" />
    <path
      d="M34.9079 24.3258C34.9153 24.3357 34.9084 24.3487 34.8902 24.3671C34.8862 24.3593 34.8911 24.3448 34.9079 24.3258Z"
      fill="#A4F1FC" />
    <path
      d="M41.2503 20.3442C41.3346 20.3939 41.4189 20.4437 41.5244 20.5113C41.7966 20.6238 41.9761 20.506 42.0005 20.2307C42.0747 19.3922 42.5919 19.1387 43.2938 19.5976C43.45 19.6996 43.599 19.8138 43.7609 19.9054C43.9066 19.9879 44.0646 20.034 44.2016 19.8768C44.2517 19.8071 44.3019 19.7374 44.3719 19.6458C44.4221 19.3418 44.4479 19.0592 44.4836 18.7778C44.6017 17.8489 44.941 17.0234 45.702 16.4403C46.3456 15.9471 47.0604 15.7017 47.86 16.0733C48.4026 16.3256 48.7576 16.7578 48.9798 17.3055C49.0986 17.5985 49.2139 17.893 49.3308 18.1869C49.3391 18.2081 49.3528 18.2288 49.355 18.2507C49.3959 18.6544 49.4171 18.6651 49.7844 18.4355C49.892 18.3119 49.9864 18.2114 50.0524 18.0947C50.175 17.8783 50.2641 17.6416 50.3982 17.4333C50.5834 17.1456 50.8724 17.0371 51.2076 17.0705C51.3538 17.085 51.5 17.1201 51.6407 17.1637C52.113 17.3103 52.53 17.5428 52.6739 18.054C52.7723 18.4036 52.8048 18.7714 52.8786 19.1287C52.9048 19.2555 52.9659 19.375 53.0111 19.4978C53.0131 19.5309 53.0152 19.5639 53.0184 19.6311C53.067 19.7539 53.11 19.8453 53.1626 19.9308C53.2871 20.1332 53.4016 20.1564 53.6053 20.0266C53.6578 19.9932 53.709 19.9577 53.7612 19.9239C54.7803 19.2645 56.2012 19.1738 57.1467 20.3259C57.4582 20.7054 57.7489 21.1097 57.691 21.6224C57.6556 21.9366 57.5045 22.2384 57.3994 22.5437C57.3152 22.7882 57.1518 23.0184 57.2803 23.296C57.2133 23.7269 57.344 23.8222 57.8365 23.6799C57.9563 23.6961 58.0403 23.7161 58.1245 23.7173C58.6063 23.724 58.7273 23.8112 58.8593 24.264C58.881 24.3382 58.8884 24.4165 58.9064 24.4921C59.1126 25.3596 58.6767 26.0332 58.1209 26.4133C57.476 26.8543 56.7371 26.9527 55.9879 26.9939C55.6559 27.0121 55.3199 26.9764 54.9867 26.951C54.6156 26.9227 54.2434 26.8927 53.8756 26.8378C53.047 26.7142 52.221 26.5738 51.3933 26.4443C51.3453 26.4368 51.2917 26.4656 51.2407 26.4775C50.7061 26.3632 50.1684 26.3582 49.5945 26.4212C49.2268 26.4463 48.8893 26.4639 48.5612 26.5289C48.3208 26.5765 48.0929 26.6863 47.8594 26.7683C47.2288 26.8925 46.6016 27.0392 45.9668 27.1358C44.8803 27.3011 43.8101 27.1337 42.753 26.8906C42.4689 26.8252 42.2085 26.6626 41.93 26.5653C41.3198 26.352 40.6987 26.3475 40.067 26.4743C39.4506 26.5981 38.8326 26.7366 38.2086 26.7909C37.8317 26.8236 37.4419 26.7082 37.0388 26.6332C36.8298 26.4246 36.6241 26.2558 36.4533 26.057C36.0839 25.6274 35.9979 25.1141 36.1054 24.5738C36.1834 24.1823 36.385 23.8584 36.725 23.6223C37.1301 23.3409 37.573 23.3717 38.0265 23.4129C38.1429 23.4236 38.2643 23.3801 38.3834 23.3615C38.3922 23.3583 38.4011 23.355 38.4346 23.355C38.571 23.1724 38.6814 22.9975 38.6769 22.757C38.6689 22.334 38.6631 21.9039 38.7282 21.4881C38.8312 20.8293 39.3044 20.0761 40.305 20.1571C40.5591 20.1777 40.8117 20.2168 41.0649 20.2474C41.0649 20.2474 41.0642 20.25 41.0727 20.2613C41.1376 20.2965 41.1939 20.3203 41.2503 20.3442ZM42.6123 24.9301C42.5871 25 42.562 25.0698 42.5322 25.1525C42.7289 25.2006 42.8003 25.0689 42.8616 24.9482C43.0785 24.5206 43.1578 24.0691 43.0768 23.5923C42.9876 23.0671 42.7591 22.6363 42.224 22.4626C41.7051 22.2942 41.2243 22.403 40.8645 22.8229C40.6154 23.1138 40.4179 23.4489 40.196 23.7661C40.0988 23.7661 39.9676 23.7593 39.8372 23.7673C39.188 23.8069 39.0152 24.2986 39.057 24.7683C39.0724 24.9414 39.1635 25.125 39.372 25.1135C39.5566 25.1033 39.4983 24.9175 39.5496 24.7921C39.7408 24.5721 39.9385 24.3692 40.2938 24.5337C40.3085 24.5603 40.3174 24.5935 40.3389 24.6122C40.3909 24.6573 40.4487 24.6956 40.5042 24.7366C40.5351 24.6736 40.5769 24.6134 40.5943 24.5469C40.6169 24.4611 40.62 24.3701 40.6591 24.2621C40.8366 23.9832 40.9946 23.6892 41.1974 23.4302C41.3673 23.2131 41.623 23.1643 41.8936 23.2395C42.189 23.3216 42.3887 23.4934 42.4236 23.8139C42.4428 23.9903 42.4412 24.17 42.4722 24.344C42.5055 24.5308 42.5661 24.7127 42.6123 24.9301ZM48.585 22.9969C48.7742 22.7038 48.9785 22.4191 49.1491 22.1156C49.4613 21.56 49.9039 21.18 50.5378 21.0725C51.2884 20.9451 51.7023 21.1054 51.972 21.937C52.1292 22.422 52.0975 22.9167 51.9762 23.4117C51.9303 23.5991 51.9466 23.8016 51.9236 24.0286C51.8779 24.1133 51.8321 24.198 51.7864 24.2827C51.8014 24.3045 51.8164 24.3262 51.8315 24.348C51.9395 24.3081 52.074 24.2954 52.1497 24.2221C52.2809 24.0951 52.4193 23.9459 52.4784 23.779C52.7651 22.9698 52.8539 22.1336 52.6268 21.2991C52.4503 20.6508 52.098 20.1028 51.4056 19.8995C50.4865 19.6295 49.3389 20.0735 48.818 20.8798C48.7243 21.0248 48.6628 21.1907 48.6034 21.3121C48.4023 21.1456 48.2302 20.9398 48.0099 20.8347C47.618 20.6478 47.1918 20.6665 46.777 20.792C46.4873 20.8795 46.2626 21.0522 46.1416 21.3372C45.8394 22.0487 45.9467 22.7212 46.3459 23.3621C46.3658 23.3942 46.4122 23.4098 46.4526 23.4373C46.4526 23.1583 46.4526 22.8998 46.4782 22.6208C46.5939 22.2928 46.7096 21.9647 46.8412 21.6151C46.8796 21.5946 46.9181 21.5742 46.9845 21.5736C47.7172 21.515 48.0441 21.766 48.198 22.4854C48.2267 22.6195 48.3075 22.7425 48.3707 22.9056C48.3925 22.9668 48.4143 23.0279 48.4361 23.0891C48.4774 23.0646 48.5186 23.0402 48.585 22.9969ZM55.2305 23.7222C55.84 23.4808 56.1307 23.0541 56.0579 22.4666C55.9893 21.9126 55.7204 21.464 55.2636 21.1417C54.7914 20.8085 54.2612 20.9186 53.9498 21.404C53.5788 21.9824 53.7202 22.8777 54.2298 23.4088C54.4937 23.6838 54.7987 23.8441 55.2305 23.7222ZM48.1403 18.8597C48.2382 18.1366 48.0329 17.7211 47.4606 17.5019C47.3457 17.4579 47.2212 17.4372 47.0999 17.4119C46.7307 17.3348 46.3289 17.5795 46.2307 17.9423C46.1944 18.0769 46.1835 18.2202 46.1333 18.3488C45.9482 18.8226 46.0222 19.2759 46.2743 19.6893C46.6204 20.2567 47.2539 20.322 47.6643 19.8706C47.9234 19.5856 48.0445 19.2546 48.1403 18.8597ZM45.2534 23.5295C44.7103 23.1415 44.1815 23.3776 43.9277 23.8389C43.8059 24.0602 43.6998 24.3071 43.6612 24.554C43.553 25.2473 43.837 26.0915 44.8463 25.9236C45.4379 25.8252 45.846 25.3834 45.8425 24.7886C45.8396 24.2946 45.637 23.8868 45.2534 23.5295ZM49.4163 25.2904C49.6832 25.459 49.9773 25.463 50.248 25.3475C51.1237 24.9737 51.1114 23.9415 50.6159 23.3665C50.5618 23.3037 50.4556 23.2668 50.3686 23.255C50.0972 23.2182 49.8536 23.2799 49.6204 23.4441C48.8826 23.9634 48.8358 24.885 49.4163 25.2904ZM40.7564 22.3107C41.1804 21.856 40.9539 21.1398 40.458 20.8221C40.23 20.6759 39.9714 20.6687 39.7261 20.8139C39.437 20.9849 39.3247 21.2393 39.3228 21.5738C39.3204 21.9854 39.5234 22.2708 39.8349 22.4896C40.1172 22.6877 40.3817 22.5725 40.6282 22.3902C40.6592 22.3672 40.6958 22.3518 40.7564 22.3107ZM38.3371 25.0294C38.307 24.9662 38.2937 24.8764 38.2437 24.8449C38.0999 24.7543 37.9367 24.6207 37.7897 24.6307C37.6559 24.6398 37.4652 24.7923 37.4225 24.9221C37.3651 25.0967 37.3865 25.3223 37.4432 25.5044C37.5755 25.929 37.9358 25.9901 38.2462 25.671C38.4243 25.488 38.4179 25.2849 38.3371 25.0294ZM56.12 25.804C56.1454 25.7304 56.1801 25.6585 56.1946 25.5828C56.2502 25.2919 55.9742 24.9529 55.7156 24.9883C55.5298 25.0137 55.304 25.2631 55.2699 25.4806C55.2303 25.7335 55.3241 25.944 55.5302 26.0266C55.7696 26.1226 55.9521 26.0187 56.12 25.804ZM44.8383 20.6789C44.814 20.7901 44.7733 20.9006 44.7688 21.0125C44.7591 21.254 44.884 21.4019 45.0804 21.4229C45.2643 21.4426 45.3966 21.3478 45.4459 21.1978C45.5035 21.0226 45.5119 20.8189 45.3498 20.679C45.2037 20.5529 45.0334 20.5229 44.8383 20.6789Z"
      fill="#DCFBFF" />
    <path
      d="M13.613 13.508C13.8627 12.9847 14.1052 12.4514 14.4018 11.9501C15.1284 10.7221 16.0013 9.60167 17.0233 8.60567C18.8422 6.83298 20.9692 5.56366 23.3822 4.7711C24.7738 4.31401 26.1983 4.03245 27.6601 3.92964C29.901 3.77204 32.1114 3.95465 34.2955 4.48175C36.6542 5.05101 38.8646 5.96744 40.8804 7.32218C42.9158 8.69 44.6375 10.3721 45.8292 12.5373C46.2032 13.217 46.4665 13.9576 46.7823 14.6874C46.141 14.7121 45.5615 14.9137 45.0169 15.2667C44.6816 14.3439 44.251 13.4889 43.7319 12.6785C42.8842 11.3548 41.8324 10.2138 40.608 9.23177C39.7113 8.51254 38.7488 7.89064 37.719 7.38148C36.7604 6.90758 35.7663 6.51814 34.735 6.22704C33.3812 5.84491 32.0023 5.60409 30.5966 5.58875C29.7976 5.58003 28.9954 5.64746 28.1986 5.72297C27.4343 5.7954 26.6619 5.86496 25.9163 6.03662C23.799 6.52406 21.8476 7.42019 20.0243 8.59319C18.9287 9.29798 17.9611 10.1571 17.1644 11.1882C16.7181 11.7659 16.3409 12.3969 15.9325 13.0039C15.1295 13.0121 14.3608 13.1756 13.613 13.508Z"
      fill="#FFA333" />
    <path
      d="M15.9543 13.0088C16.3409 12.3969 16.7181 11.7659 17.1644 11.1882C17.961 10.1572 18.9287 9.29801 20.0243 8.59321C21.8476 7.42022 23.799 6.52409 25.9163 6.03664C26.6619 5.86499 27.4343 5.79543 28.1986 5.72299C28.9954 5.64748 29.7976 5.58006 30.5966 5.58877C32.0023 5.60412 33.3812 5.84494 34.735 6.22706C35.7663 6.51816 36.7604 6.90761 37.7189 7.38151C38.7488 7.89066 39.7113 8.51256 40.608 9.2318C41.8324 10.2139 42.8842 11.3548 43.7319 12.6785C44.251 13.4889 44.6816 14.3439 45.0015 15.2721C44.2733 15.8683 43.7725 16.5961 43.5552 17.5103C43.506 17.2359 43.4801 16.9642 43.4303 16.697C43.1056 14.953 42.2787 13.4559 41.1191 12.1408C40.0136 10.887 38.6948 9.89537 37.2048 9.13579C35.5076 8.27059 33.7153 7.72075 31.8216 7.48892C30.5534 7.33366 29.2869 7.32196 28.02 7.46144C26.7372 7.60266 25.4896 7.90398 24.2779 8.35104C21.5592 9.35413 19.3134 11.005 17.523 13.2801C17.0074 13.1913 16.4918 13.1025 15.9543 13.0088Z"
      fill="#FFDB26" />
    <path
      d="M17.536 13.29C19.3134 11.005 21.5591 9.3541 24.2778 8.35101C25.4895 7.90395 26.7371 7.60263 28.0199 7.46141C29.2868 7.32193 30.5534 7.33363 31.8216 7.48889C33.7152 7.72072 35.5076 8.27056 37.2047 9.13576C38.6947 9.89534 40.0135 10.8869 41.1191 12.1408C42.2787 13.4558 43.1055 14.9529 43.4302 16.6969C43.48 16.9642 43.5059 17.2359 43.5458 17.526C43.5249 17.8617 43.501 18.1768 43.4746 18.5248C43.0606 18.345 42.6278 18.2802 42.1623 18.3573C42.1865 17.426 42.0025 16.5602 41.6596 15.7284C40.9441 13.993 39.748 12.643 38.2238 11.5843C35.2822 9.54095 31.9947 8.76488 28.4533 9.06496C25.6626 9.30144 23.1242 10.2652 20.8539 11.9141C20.0565 12.4931 19.3042 13.1247 18.6533 13.8695C18.5276 13.7999 18.4038 13.7267 18.2758 13.6615C18.0348 13.5385 17.7915 13.4202 17.536 13.29Z"
      fill="#95DA2E" />
    <path
      d="M18.6606 13.8838C19.3042 13.1247 20.0566 12.4932 20.8539 11.9141C23.1242 10.2653 25.6626 9.30147 28.4533 9.065C31.9948 8.76491 35.2822 9.54099 38.2238 11.5843C39.748 12.643 40.9441 13.993 41.6596 15.7285C42.0025 16.5602 42.1865 17.426 42.1421 18.3537C42.1096 18.3981 42.082 18.4306 42.0475 18.4415C41.5712 18.591 41.2836 18.9148 41.1512 19.3903C41.1384 19.4364 41.0812 19.4702 41.032 19.4832C41.0158 19.2304 41.036 19.0007 41.0048 18.7783C40.7397 16.8916 39.9155 15.2765 38.589 13.9197C37.5739 12.8815 36.3865 12.0871 35.0571 11.5024C33.5331 10.8322 31.9369 10.4796 30.2772 10.4112C29.3075 10.3712 28.3489 10.4963 27.3928 10.6412C25.2572 10.9649 23.3337 11.8352 21.507 12.9444C20.7372 13.4118 20.0626 14.0052 19.4166 14.6302C19.2901 14.5132 19.1608 14.3989 19.0377 14.2783C18.9113 14.1547 18.7909 14.0251 18.6606 13.8838Z"
      fill="#A1EBED" />
    <path
      d="M19.4139 14.6467C20.0627 14.0052 20.7372 13.4118 21.507 12.9443C23.3338 11.8352 25.2573 10.9649 27.3929 10.6412C28.3489 10.4962 29.3075 10.3712 30.2772 10.4112C31.937 10.4796 33.5332 10.8322 35.0571 11.5024C36.3865 12.0871 37.574 12.8815 38.589 13.9197C39.9156 15.2765 40.7397 16.8916 41.0048 18.7783C41.0361 19.0007 41.0158 19.2304 41.019 19.4787C40.6693 19.3707 40.3185 19.2531 39.9196 19.3543C39.815 18.4658 39.4873 17.6583 39.0428 16.8987C37.8742 14.902 36.1343 13.5886 34.009 12.751C32.9582 12.3369 31.8685 12.0878 30.7404 11.9926C29.0137 11.8469 27.3265 12.0655 25.6838 12.5772C23.9644 13.1127 22.3751 13.9241 20.9587 15.0482C20.6355 15.3047 20.3441 15.6011 20.0243 15.8879C19.8108 15.4856 19.611 15.0744 19.4139 14.6467Z"
      fill="#52B4E6" />
    <path
      d="M49.327 18.1659C49.2138 17.893 49.0986 17.5985 48.9797 17.3054C48.7576 16.7578 48.4026 16.3256 47.8599 16.0733C47.0603 15.7016 46.3455 15.9471 45.7019 16.4402C44.941 17.0234 44.6016 17.8489 44.4836 18.7778C44.4478 19.0592 44.422 19.3418 44.3752 19.629C44.2767 19.1057 44.1294 18.5778 44.1251 18.0488C44.1137 16.6576 45.3135 15.4177 46.6864 15.3329C47.9119 15.2573 48.981 16.101 49.2143 17.3363C49.2647 17.6032 49.2877 17.8752 49.327 18.1659Z"
      fill="#FDFFFF" />
    <path
      d="M57.288 23.282C57.1517 23.0184 57.3152 22.7882 57.3993 22.5437C57.5044 22.2384 57.6555 21.9365 57.691 21.6224C57.7488 21.1097 57.4581 20.7054 57.1466 20.3259C56.2011 19.1738 54.7802 19.2645 53.7612 19.9239C53.7089 19.9577 53.6577 19.9932 53.6052 20.0266C53.4015 20.1564 53.2871 20.1332 53.1625 19.9308C53.1099 19.8453 53.0669 19.7539 53.0183 19.6476C53.1983 19.7351 53.3654 19.7096 53.5424 19.6027C53.8755 19.4015 54.208 19.1949 54.5587 19.0281C55.2035 18.7214 55.8436 18.7814 56.4684 19.1134C57.2323 19.5194 57.8136 20.0778 57.9907 20.9603C58.1349 21.6785 57.9894 22.3385 57.5373 22.9243C57.4518 23.035 57.376 23.1532 57.288 23.282Z"
      fill="#FDFFFF" />
    <path
      d="M51.2587 26.4804C51.2917 26.4655 51.3454 26.4368 51.3933 26.4443C52.221 26.5738 53.047 26.7142 53.8756 26.8378C54.2435 26.8926 54.6156 26.9227 54.9868 26.951C55.3199 26.9764 55.6559 27.0121 55.9879 26.9939C56.7372 26.9527 57.476 26.8543 58.1209 26.4133C58.6767 26.0331 59.1127 25.3596 58.9064 24.492C58.8885 24.4165 58.881 24.3382 58.8594 24.264C58.7273 23.8112 58.6063 23.724 58.1245 23.7173C58.0403 23.7161 57.9564 23.696 57.8535 23.6769C58.0389 23.5954 58.2389 23.5052 58.4483 23.4521C58.7532 23.3748 58.9774 23.5315 59.1519 23.7614C59.6131 24.3689 59.6147 25.1766 59.1658 25.8864C58.699 26.6244 57.9899 26.98 57.1639 27.1335C56.2903 27.2959 55.4088 27.2511 54.5342 27.1514C53.4301 27.0255 52.3438 26.7972 51.2587 26.4804Z"
      fill="#FCFEFF" />
    <path
      d="M53.0133 19.4791C52.9659 19.375 52.9048 19.2554 52.8786 19.1287C52.8048 18.7714 52.7723 18.4036 52.6739 18.0539C52.53 17.5428 52.113 17.3103 51.6406 17.1637C51.5 17.1201 51.3538 17.085 51.2076 17.0705C50.8724 17.0371 50.5834 17.1456 50.3982 17.4333C50.2641 17.6416 50.175 17.8783 50.0524 18.0947C49.9864 18.2113 49.892 18.3119 49.7935 18.4226C49.8739 18.0645 49.9602 17.7 50.0711 17.3431C50.2861 16.6506 50.6143 16.4425 51.33 16.5497C51.8073 16.6212 52.2483 16.7982 52.636 17.0906C53.1483 17.4771 53.2781 18.0099 53.1878 18.6132C53.1452 18.8978 53.0738 19.1781 53.0133 19.4791Z"
      fill="#FDFFFF" />
    <path
      d="M38.3655 23.3571C38.2643 23.3801 38.1429 23.4235 38.0265 23.4129C37.5731 23.3716 37.1302 23.3409 36.7251 23.6223C36.385 23.8584 36.1834 24.1823 36.1055 24.5738C35.9979 25.1141 36.0839 25.6274 36.4533 26.057C36.6241 26.2558 36.8299 26.4246 37.0251 26.6229C35.8485 26.3346 35.1973 25.054 35.6934 24.0094C36.0616 23.2343 36.8091 22.8947 37.6342 23.1315C37.8735 23.2001 38.1099 23.2787 38.3655 23.3571Z"
      fill="#FDFFFF" />
    <path
      d="M41.0636 20.2308C40.8117 20.2168 40.5591 20.1777 40.305 20.1571C39.3044 20.0761 38.8312 20.8293 38.7282 21.488C38.6632 21.9039 38.6689 22.334 38.6769 22.757C38.6814 22.9975 38.571 23.1723 38.4482 23.3509C38.4021 23.2273 38.389 23.0978 38.3283 22.9969C37.9601 22.3841 37.9716 21.3626 38.3984 20.8066C38.752 20.346 39.2788 20.1599 39.8196 20.0189C40.1519 19.9323 40.4832 19.9439 40.8051 20.0659C40.8964 20.1005 40.9768 20.164 41.0636 20.2308Z"
      fill="#FCFEFF" />
    <path
      d="M44.1831 19.8764C44.0646 20.0339 43.9066 19.9879 43.7609 19.9054C43.599 19.8138 43.45 19.6996 43.2938 19.5975C42.5919 19.1387 42.0747 19.3921 42.0004 20.2307C41.9761 20.506 41.7965 20.6237 41.5414 20.5137C41.5685 20.4269 41.6194 20.3575 41.6274 20.2835C41.6506 20.068 41.649 19.8498 41.671 19.6341C41.7029 19.3213 41.8955 19.1314 42.1781 19.0257C42.7893 18.7968 43.1696 18.9017 43.6231 19.4203C43.7152 19.5256 43.7928 19.646 43.8961 19.738C43.9689 19.8028 44.0739 19.8313 44.1831 19.8764Z"
      fill="#FCFEFF" />
    <path
      d="M47.8783 26.7674C48.0928 26.6863 48.3208 26.5765 48.5611 26.5289C48.8893 26.464 49.2268 26.4463 49.5741 26.4199C49.0244 26.543 48.4608 26.6547 47.8783 26.7674Z"
      fill="#F8FDFE" />
    <path
      d="M41.2435 20.3294C41.1939 20.3203 41.1375 20.2965 41.0724 20.2601C41.1213 20.2698 41.179 20.2923 41.2435 20.3294Z"
      fill="#FCFEFF" />
    <path
      d="M11.8691 16.9617C11.8879 16.9629 11.9066 16.9641 11.9427 16.9833C12.0871 17.116 12.1529 17.0629 12.1853 16.9189C12.1853 16.9189 12.1871 16.9221 12.2042 16.9215C12.5453 16.8956 12.7092 16.6688 12.7845 16.401C12.9369 15.8586 13.3235 15.5059 13.747 15.2065C14.5406 14.6457 15.4361 14.4146 16.4044 14.5838C17.5074 14.7766 18.3229 15.3633 18.7762 16.4091C18.9586 16.8299 19.1358 17.2529 19.3154 17.6749C19.34 17.7434 19.3646 17.8119 19.3846 17.9063C19.3747 18.1695 19.5124 18.3596 19.7579 18.4152C19.9694 18.463 20.1877 18.4795 20.4012 18.5194C20.9172 18.6158 21.2973 19.0567 21.2741 19.5788C21.2622 19.846 21.1732 20.1095 21.1223 20.3754C21.0789 20.6026 21.0117 20.83 21.0063 21.0586C20.9987 21.378 21.2244 21.5971 21.4209 21.8178C21.683 22.1121 21.7527 22.4762 21.5377 22.6786C21.3251 22.8789 21.0933 23.0805 20.8334 23.2052C19.7421 23.7288 18.6145 24.1479 17.4048 24.3194C16.7515 24.412 16.1022 24.5365 15.4548 24.6649C15.2361 24.7083 15.0287 24.8084 14.8162 24.8826C13.7878 24.9177 12.7596 24.9678 11.7309 24.983C11.0085 24.9937 10.2851 24.964 9.56258 24.9392C8.97914 24.9192 8.39632 24.8541 7.81333 24.8553C7.09701 24.8568 6.3808 24.9065 5.62956 24.9224C5.50402 24.8882 5.414 24.8509 5.32282 24.8478C4.64821 24.8249 3.99992 24.6966 3.37459 24.4322C2.7712 24.1771 2.15818 23.9456 1.6885 23.462C1.35664 23.1204 1.29226 22.714 1.42982 22.2736C1.54945 21.8905 1.819 21.6643 2.21624 21.598C2.40722 21.5662 2.60043 21.5474 2.79101 21.5135C2.94609 21.486 3.0675 21.4179 3.04077 21.2267C3.08473 21.1755 3.12868 21.1242 3.19857 21.0604C3.40202 21.0776 3.47485 20.9664 3.53159 20.8258C3.63948 20.5585 3.74678 20.2908 3.86298 20.0271C4.07811 19.5388 4.6445 19.2698 5.18828 19.3975C5.57267 19.4878 5.94538 19.6272 6.32874 19.7228C6.49781 19.765 6.69612 19.8 6.85101 19.7482C6.94606 19.7164 6.98401 19.5139 7.04757 19.3881C7.05108 19.3811 7.05497 19.3743 7.05764 19.367C7.20752 18.9601 7.37564 18.5588 7.50378 18.1451C7.9773 16.6164 9.49034 15.865 11.0011 16.5637C11.2759 16.6908 11.5442 16.8319 11.8154 16.9666C11.8154 16.9666 11.8133 16.9688 11.8187 16.975C11.8391 16.9747 11.8541 16.9682 11.8691 16.9617ZM12.0468 21.2345C12.0468 21.2345 12.0475 21.2321 12.0517 21.2618C12.096 21.2693 12.1403 21.2769 12.2164 21.279C12.2676 21.2639 12.3188 21.2487 12.4032 21.2299C12.53 21.0687 12.6882 20.923 12.7771 20.743C12.9698 20.3531 13.1973 20.0081 13.5558 19.7431C14.4025 19.1173 15.286 19.3813 15.6285 20.3754C15.7806 20.817 15.8021 21.2716 15.8017 21.7324C15.8017 21.8477 15.8605 21.9629 15.9218 22.0919C15.9944 22.071 16.0943 22.0737 16.1356 22.0258C16.9884 21.0382 16.8255 19.693 15.9591 18.8608C14.8716 17.8161 13.4637 18.0727 12.4983 18.9269C12.165 19.2218 11.9286 19.5765 11.841 19.9578C11.518 19.9459 11.2288 19.8899 10.9558 19.934C10.2483 20.0483 9.70712 20.8805 9.88225 21.548C9.9087 21.6488 10.0012 21.7322 10.0631 21.8237C10.1413 21.767 10.2195 21.7103 10.3363 21.6555C10.423 21.6147 10.5285 21.5926 10.5919 21.5288C10.6832 21.437 10.7484 21.3176 10.8167 21.2051C10.9502 20.985 11.1383 20.8585 11.3968 20.9106C11.5896 20.9495 11.7739 21.0303 11.9814 21.109C11.9896 21.1329 11.9978 21.1568 11.9917 21.196C12.0109 21.2086 12.03 21.2211 12.0468 21.2345ZM4.71636 23.2488C4.9304 23.1263 5.16013 23.0247 5.35549 22.8775C5.90018 22.467 6.62569 22.646 6.75568 23.405C6.77147 23.4971 6.84049 23.5802 6.88955 23.7014C6.93958 23.9491 7.04129 23.8317 7.12796 23.7306C7.59131 23.1901 7.45547 22.2839 6.85387 21.8492C6.45534 21.5612 5.99899 21.5815 5.55078 21.6155C4.78426 21.6737 4.30796 22.1815 4.3099 22.897C4.31076 23.216 4.35165 23.2549 4.71636 23.2488ZM14.8819 15.8453C14.637 16.1252 14.5617 16.4539 14.575 16.8194C14.5935 17.3286 14.8333 17.6971 15.2753 17.9207C15.6912 18.1311 16.1178 18.1214 16.5186 17.8619C17.0998 17.4855 17.1928 17.0022 17.0771 16.3543C16.9869 15.8495 16.6652 15.5304 16.1547 15.419C15.6607 15.3112 15.2568 15.4845 14.8819 15.8453ZM19.969 23.0443C20.3047 22.8568 20.3967 22.5241 20.4691 22.1859C20.6143 21.5071 20.2777 20.9523 19.6289 20.7857C19.201 20.6759 18.526 20.9456 18.2347 21.3226C17.9476 21.6942 17.8228 22.0946 18.0223 22.5359C18.3397 23.2382 19.2121 23.4707 19.969 23.0443ZM10.0295 19.7592C10.5119 19.2809 10.5867 18.5839 10.1603 18.0532C10.0157 17.8731 9.75829 17.7746 9.53903 17.6658C9.21 17.5025 8.90023 17.5583 8.64112 17.8234C8.29183 18.1808 8.16704 18.6324 8.21776 19.1123C8.27138 19.6196 8.58739 19.9939 8.97138 20.0531C9.34837 20.1112 9.69938 20.0219 10.0295 19.7592ZM14.9167 21.6782C14.6543 21.1738 14.2087 21 13.7554 21.2253C13.016 21.5927 12.7928 22.541 13.2909 23.1978C13.5377 23.5231 13.9397 23.6688 14.2835 23.5576C14.7078 23.4204 15.0975 23.0123 15.0847 22.6445C15.0739 22.3317 14.9867 22.0215 14.9167 21.6782ZM3.27168 23.462C3.73186 23.1128 3.70752 22.4838 3.36179 22.15C3.1485 21.9441 2.75624 21.9185 2.49148 22.0756C2.23086 22.2302 2.09483 22.6288 2.17673 22.9621C2.31906 23.5415 2.87877 23.7281 3.27168 23.462ZM4.47677 20.0712C4.18542 20.6005 4.41222 21.0517 4.86982 21.2757C5.28137 21.4771 5.69494 21.1985 5.72547 20.7433C5.74562 20.4428 5.61735 20.2471 5.41341 20.056C5.09378 19.7567 4.8241 19.7442 4.47677 20.0712ZM20.4309 20.1679C20.5929 19.9164 20.6321 19.6484 20.5257 19.367C20.4502 19.1673 20.3195 19.0224 20.0952 18.9851C19.8362 18.9419 19.6085 19.0194 19.5148 19.2607C19.4369 19.461 19.4026 19.6986 19.4248 19.9118C19.4476 20.1314 19.5998 20.323 19.8326 20.3765C20.0468 20.4257 20.271 20.4253 20.4309 20.1679ZM8.43727 20.6483C8.26877 20.4593 8.05957 20.4318 7.84212 20.5294C7.61708 20.6303 7.56013 20.8371 7.59909 21.0602C7.6225 21.1942 7.66884 21.3367 7.74583 21.4467C7.9669 21.7625 8.3604 21.7277 8.54682 21.3912C8.69127 21.1304 8.6236 20.8972 8.43727 20.6483ZM11.7895 23.2503C12.106 23.2327 12.2831 23.0257 12.2813 22.6755C12.2796 22.334 12.0818 22.0946 11.7884 22.079C11.5439 22.0659 11.2697 22.3446 11.2508 22.6254C11.2312 22.9163 11.4691 23.2137 11.7895 23.2503Z"
      fill="#DCFBFF" />
    <path
      d="M14.8354 24.883C15.0287 24.8084 15.2361 24.7083 15.4547 24.6649C16.1022 24.5364 16.7515 24.412 17.4047 24.3194C18.6145 24.1478 19.7421 23.7288 20.8334 23.2052C21.0933 23.0804 21.325 22.8789 21.5377 22.6786C21.7526 22.4762 21.683 22.1121 21.4209 21.8177C21.2243 21.5971 20.9986 21.378 21.0062 21.0586C21.0117 20.83 21.0788 20.6026 21.1223 20.3754C21.1731 20.1095 21.2621 19.846 21.274 19.5788C21.2973 19.0567 20.9171 18.6158 20.4012 18.5194C20.1877 18.4794 19.9693 18.463 19.7579 18.4152C19.5124 18.3596 19.3747 18.1695 19.3913 17.9208C19.5932 18.0604 19.7761 17.9434 19.9561 17.887C20.6581 17.6668 21.2932 17.9183 21.6312 18.5651C21.8962 19.0722 21.8211 19.5792 21.5985 20.0759C21.4804 20.3393 21.343 20.594 21.2123 20.8516C21.0894 21.0937 21.1332 21.2211 21.3843 21.3336C21.4555 21.3655 21.5269 21.4021 21.6021 21.4186C22.4061 21.595 22.4614 22.4778 22.1089 23.0179C21.7585 23.5548 21.2386 23.856 20.6668 24.0871C19.9233 24.3877 19.1437 24.5411 18.3487 24.6072C17.2619 24.6977 16.1735 24.7687 15.0859 24.8493C15.0084 24.8551 14.9318 24.8718 14.8354 24.883Z"
      fill="#FDFFFF" />
    <path
      d="M11.8157 16.9501C11.5441 16.8319 11.2759 16.6908 11.0011 16.5637C9.4903 15.865 7.97727 16.6164 7.50374 18.1451C7.37561 18.5588 7.20748 18.9601 7.05761 19.367C7.05493 19.3743 7.05104 19.3811 7.04753 19.3881C6.98397 19.5139 6.94602 19.7164 6.85098 19.7482C6.69608 19.8 6.49777 19.765 6.3287 19.7228C5.94534 19.6272 5.57264 19.4878 5.18825 19.3976C4.64447 19.2699 4.07808 19.5389 3.86295 20.0271C3.74674 20.2908 3.63945 20.5585 3.53156 20.8258C3.47481 20.9664 3.40198 21.0776 3.20544 21.0477C3.21992 20.6518 3.23284 20.2529 3.29149 19.8609C3.39146 19.1926 3.76039 18.886 4.46213 18.8501C5.18235 18.8134 5.85738 18.9118 6.42842 19.4195C6.7048 19.6652 6.85435 19.5921 6.88229 19.2198C6.91434 18.7929 6.93675 18.3635 6.93048 17.9357C6.92047 17.2535 7.19531 16.7254 7.74502 16.3404C8.54995 15.7766 9.44647 15.6171 10.3992 15.8119C10.9386 15.9223 11.3142 16.2974 11.6522 16.7072C11.7114 16.7789 11.7616 16.8579 11.8157 16.9501Z"
      fill="#FEFFFF" />
    <path
      d="M19.3268 17.661C19.1357 17.2529 18.9585 16.8299 18.7761 16.4091C18.3229 15.3633 17.5073 14.7766 16.4043 14.5838C15.436 14.4146 14.5406 14.6457 13.747 15.2066C13.3234 15.5059 12.9368 15.8586 12.7844 16.401C12.7091 16.6688 12.5452 16.8956 12.2029 16.9201C12.2824 16.5275 12.3629 16.1303 12.482 15.7451C12.6757 15.1189 13.1299 14.6994 13.6843 14.4006C14.8042 13.797 15.9842 13.6215 17.2029 14.0583C18.394 14.4852 19.1223 15.3229 19.3172 16.5926C19.3502 16.8078 19.3928 17.0231 19.4026 17.2396C19.4087 17.3742 19.3616 17.5112 19.3268 17.661Z"
      fill="#FEFFFF" />
    <path
      d="M3.02134 21.2299C3.06748 21.4179 2.94606 21.486 2.79099 21.5135C2.6004 21.5474 2.40719 21.5662 2.21621 21.5981C1.81897 21.6643 1.54942 21.8905 1.42979 22.2736C1.29224 22.7141 1.35661 23.1204 1.68847 23.462C2.15816 23.9456 2.77117 24.1771 3.37457 24.4322C3.99989 24.6966 4.64819 24.825 5.3228 24.8478C5.41397 24.8509 5.50399 24.8882 5.6073 24.9212C4.76419 24.9375 3.90354 25.0127 3.06727 24.7449C2.32579 24.5074 1.65256 24.1679 1.18228 23.5152C0.733722 22.8926 0.688678 22.0787 1.07369 21.5204C1.35335 21.1148 1.97534 20.8851 2.44449 21.0174C2.49501 21.0317 2.55657 21.0544 2.58428 21.0935C2.69213 21.2458 2.84011 21.2549 3.02134 21.2299Z"
      fill="#FDFFFF" />
    <path
      d="M12.1681 16.9162C12.1528 17.0629 12.087 17.116 11.9565 16.9854C12.0192 16.9508 12.0851 16.9322 12.1681 16.9162Z"
      fill="#FEFFFF" />
    <path
      d="M13.5634 13.5446C13.5539 13.5309 13.5623 13.5183 13.5863 13.5049C13.5903 13.5148 13.5834 13.5286 13.5634 13.5446Z"
      fill="#FFA333" />
    <path
      d="M11.855 16.9599C11.8541 16.9682 11.839 16.9747 11.8187 16.9734C11.8226 16.9631 11.8317 16.9606 11.855 16.9599Z"
      fill="#FEFFFF" />
    <path
      d="M46.9565 21.5538C46.9181 21.5742 46.8796 21.5946 46.8201 21.6367C46.5177 21.9276 46.457 22.2745 46.4526 22.6413C46.4526 22.8998 46.4526 23.1583 46.4526 23.4373C46.4122 23.4097 46.3659 23.3941 46.3459 23.3621C45.9467 22.7212 45.8394 22.0487 46.1416 21.3372C46.2626 21.0522 46.4873 20.8795 46.777 20.7919C47.1919 20.6665 47.618 20.6477 48.0099 20.8347C48.2302 20.9397 48.4023 21.1456 48.6035 21.3121C48.6628 21.1907 48.7243 21.0248 48.818 20.8798C49.339 20.0735 50.4865 19.6294 51.4056 19.8994C52.098 20.1028 52.4503 20.6508 52.6268 21.2991C52.8539 22.1335 52.7651 22.9698 52.4784 23.779C52.4193 23.9459 52.2809 24.0951 52.1497 24.2221C52.074 24.2954 51.9395 24.308 51.8315 24.348C51.8165 24.3262 51.8014 24.3044 51.7864 24.2827C51.8321 24.198 51.8779 24.1133 51.9376 23.9987C52.2863 23.2903 52.3647 22.5639 52.2937 21.8269C52.2696 21.5761 52.1504 21.3098 52.0038 21.1C51.5921 20.5103 50.6921 20.3327 49.9731 20.6918C49.0217 21.1668 48.6745 22.0241 48.5599 23.0157C48.5187 23.0402 48.4774 23.0646 48.4361 23.0891C48.4143 23.0279 48.3925 22.9668 48.3665 22.8692C48.3515 22.6866 48.3321 22.5405 48.3312 22.3942C48.3262 21.6072 47.7582 21.2731 46.9565 21.5538Z"
      fill="#96E1ED" />
    <path
      d="M55.2121 23.7277C54.7987 23.8441 54.4937 23.6838 54.2298 23.4087C53.7201 22.8776 53.5787 21.9823 53.9497 21.404C54.2611 20.9186 54.7913 20.8085 55.2636 21.1417C55.7204 21.464 55.9892 21.9126 56.0579 22.4666C56.1307 23.0541 55.84 23.4808 55.2121 23.7277Z"
      fill="#F6FFFD" />
    <path
      d="M48.139 18.8797C48.0444 19.2546 47.9233 19.5856 47.6642 19.8706C47.2539 20.322 46.6203 20.2567 46.2743 19.6893C46.0221 19.2759 45.9481 18.8226 46.1333 18.3488C46.1835 18.2202 46.1943 18.0769 46.2307 17.9423C46.3288 17.5795 46.7306 17.3348 47.0998 17.4119C47.2212 17.4372 47.3456 17.4579 47.4605 17.5019C48.0329 17.7211 48.2381 18.1366 48.139 18.8797Z"
      fill="#F6FFFD" />
    <path
      d="M45.2659 23.541C45.637 23.8868 45.8396 24.2946 45.8425 24.7886C45.846 25.3834 45.4379 25.8252 44.8463 25.9236C43.837 26.0914 43.553 25.2473 43.6612 24.554C43.6998 24.307 43.8059 24.0602 43.9277 23.8389C44.1815 23.3776 44.7103 23.1414 45.2659 23.541Z"
      fill="#F6FFFD" />
    <path
      d="M49.4024 25.2796C48.8358 24.885 48.8826 23.9634 49.6204 23.4441C49.8536 23.2799 50.0972 23.2182 50.3686 23.255C50.4556 23.2668 50.5618 23.3037 50.6159 23.3665C51.1114 23.9415 51.1237 24.9737 50.248 25.3475C49.9773 25.463 49.6832 25.459 49.4024 25.2796Z"
      fill="#F6FFFD" />
    <path
      d="M40.6314 24.2813C40.6199 24.3701 40.6168 24.461 40.5943 24.5469C40.5768 24.6134 40.535 24.6736 40.5041 24.7366C40.4486 24.6956 40.3908 24.6573 40.3389 24.6122C40.3173 24.5935 40.3084 24.5603 40.2798 24.5048C40.1798 24.1619 39.9903 24.0892 39.7611 24.3193C39.6412 24.4396 39.5964 24.6347 39.5177 24.796C39.4982 24.9175 39.5565 25.1033 39.3719 25.1135C39.1634 25.125 39.0723 24.9414 39.0569 24.7683C39.0151 24.2986 39.188 23.8069 39.8371 23.7673C39.9675 23.7593 40.0988 23.7661 40.196 23.7661C40.4179 23.4489 40.6153 23.1138 40.8645 22.8229C41.2243 22.4029 41.705 22.2942 42.224 22.4626C42.7591 22.6363 42.9876 23.0671 43.0767 23.5923C43.1577 24.0691 43.0784 24.5206 42.8615 24.9482C42.8002 25.0689 42.7288 25.2006 42.5321 25.1524C42.5619 25.0697 42.5871 24.9999 42.6239 24.8979C42.6574 24.4964 42.7338 24.1201 42.6876 23.7594C42.6246 23.2666 42.2634 22.9923 41.7886 22.8966C41.3924 22.8168 41.1257 23.0351 40.9026 23.3348C40.6916 23.6184 40.6236 23.9377 40.6314 24.2813Z"
      fill="#96E1ED" />
    <path
      d="M48.5725 23.0063C48.6745 22.0241 49.0217 21.1668 49.9731 20.6918C50.6922 20.3328 51.5921 20.5103 52.0039 21.1C52.1504 21.3098 52.2696 21.5761 52.2937 21.8269C52.3647 22.5639 52.2863 23.2903 51.943 23.9831C51.9466 23.8016 51.9304 23.599 51.9763 23.4117C52.0975 22.9166 52.1293 22.422 51.972 21.937C51.7023 21.1054 51.2884 20.9451 50.5378 21.0725C49.9039 21.18 49.4614 21.56 49.1491 22.1155C48.9785 22.4191 48.7742 22.7038 48.5725 23.0063Z"
      fill="#FDFEFF" />
    <path
      d="M40.7431 22.3218C40.6958 22.3518 40.6592 22.3672 40.6282 22.3902C40.3817 22.5725 40.1172 22.6877 39.835 22.4896C39.5234 22.2708 39.3204 21.9854 39.3228 21.5738C39.3247 21.2393 39.4371 20.9849 39.7261 20.8139C39.9714 20.6687 40.23 20.676 40.458 20.8221C40.9539 21.1398 41.1804 21.856 40.7431 22.3218Z"
      fill="#F6FFFD" />
    <path
      d="M38.342 25.0476C38.4179 25.2849 38.4243 25.488 38.2462 25.6711C37.9358 25.9901 37.5755 25.929 37.4432 25.5044C37.3864 25.3223 37.365 25.0967 37.4225 24.9221C37.4652 24.7923 37.6559 24.6398 37.7897 24.6307C37.9366 24.6207 38.0998 24.7543 38.2436 24.8449C38.2937 24.8764 38.307 24.9662 38.342 25.0476Z"
      fill="#F6FFFD" />
    <path
      d="M40.6453 24.2717C40.6236 23.9377 40.6916 23.6184 40.9027 23.3348C41.1258 23.0351 41.3925 22.8168 41.7887 22.8967C42.2635 22.9923 42.6247 23.2667 42.6877 23.7594C42.7339 24.1201 42.6574 24.4964 42.6252 24.8812C42.5661 24.7127 42.5055 24.5308 42.4722 24.344C42.4411 24.17 42.4428 23.9903 42.4236 23.8139C42.3887 23.4934 42.189 23.3216 41.8935 23.2395C41.623 23.1642 41.3673 23.2131 41.1974 23.4302C40.9946 23.6892 40.8366 23.9832 40.6453 24.2717Z"
      fill="#FBFEFF" />
    <path
      d="M56.1119 25.8201C55.952 26.0187 55.7696 26.1225 55.5302 26.0266C55.3241 25.944 55.2303 25.7335 55.2699 25.4806C55.304 25.2631 55.5298 25.0137 55.7156 24.9883C55.9742 24.9529 56.2501 25.2919 56.1945 25.5828C56.18 25.6585 56.1454 25.7303 56.1119 25.8201Z"
      fill="#F6FFFD" />
    <path
      d="M44.8505 20.6642C45.0334 20.5229 45.2036 20.5529 45.3498 20.679C45.5118 20.8189 45.5034 21.0226 45.4459 21.1978C45.3966 21.3478 45.2642 21.4426 45.0803 21.4229C44.8839 21.4019 44.759 21.254 44.7687 21.0125C44.7732 20.9006 44.8139 20.7901 44.8505 20.6642Z"
      fill="#F6FFFD" />
    <path
      d="M46.9705 21.5637C47.7581 21.2731 48.3262 21.6072 48.3311 22.3942C48.332 22.5405 48.3514 22.6866 48.3632 22.8517C48.3075 22.7425 48.2267 22.6195 48.198 22.4854C48.044 21.7659 47.7172 21.515 46.9705 21.5637Z"
      fill="#FBFEFF" />
    <path
      d="M39.5337 24.7941C39.5965 24.6347 39.6413 24.4396 39.7611 24.3193C39.9904 24.0893 40.1798 24.1619 40.2683 24.4935C39.9385 24.3692 39.7407 24.5721 39.5337 24.7941Z"
      fill="#F8FDFE" />
    <path
      d="M46.4653 22.6311C46.457 22.2745 46.5177 21.9276 46.812 21.6475C46.7095 21.9647 46.5938 22.2927 46.4653 22.6311Z"
      fill="#FBFEFF" />
    <path
      d="M12.006 21.1807C11.9978 21.1568 11.9896 21.1329 11.9669 21.0837C11.8398 20.6081 11.6952 20.5644 11.3435 20.5459C11.0162 20.5287 10.736 20.6849 10.58 20.9904C10.471 21.2038 10.3907 21.4319 10.2976 21.6535C10.2194 21.7102 10.1412 21.767 10.063 21.8237C10.0011 21.7322 9.90864 21.6487 9.8822 21.5479C9.70706 20.8805 10.2483 20.0482 10.9557 19.934C11.2287 19.8899 11.5179 19.9459 11.8409 19.9578C11.9285 19.5764 12.165 19.2217 12.4982 18.9268C13.4636 18.0727 14.8716 17.8161 15.959 18.8607C16.8254 19.693 16.9883 21.0382 16.1355 22.0258C16.0942 22.0736 15.9944 22.071 15.9084 22.0681C15.9234 21.9803 15.9495 21.9153 15.9804 21.8526C16.2508 21.3042 16.3053 20.7373 16.1344 20.1485C15.9094 19.3731 15.179 18.7813 14.1812 18.8357C13.4263 18.8769 12.7426 19.4345 12.5606 20.226C12.484 20.5588 12.4327 20.8975 12.3699 21.2336C12.3187 21.2487 12.2675 21.2638 12.1861 21.2787C12.1197 21.263 12.0835 21.2475 12.0474 21.2321C12.0474 21.2321 12.0468 21.2344 12.0425 21.2239C12.0295 21.2004 12.0188 21.1895 12.006 21.1807Z"
      fill="#97E1ED" />
    <path
      d="M14.8938 15.8332C15.2568 15.4846 15.6607 15.3113 16.1547 15.4191C16.6651 15.5305 16.9869 15.8495 17.0771 16.3544C17.1928 17.0022 17.0998 17.4855 16.5186 17.8619C16.1178 18.1214 15.6911 18.1311 15.2752 17.9207C14.8333 17.6972 14.5934 17.3286 14.5749 16.8194C14.5617 16.4539 14.637 16.1252 14.8938 15.8332Z"
      fill="#F6FFFD" />
    <path
      d="M19.9551 23.0549C19.212 23.4707 18.3396 23.2382 18.0222 22.5359C17.8227 22.0946 17.9475 21.6942 18.2346 21.3226C18.5259 20.9456 19.2009 20.6759 19.6288 20.7857C20.2777 20.9523 20.6142 21.5071 20.469 22.1859C20.3966 22.5242 20.3046 22.8568 19.9551 23.0549Z"
      fill="#F6FFFD" />
    <path
      d="M10.017 19.7707C9.69937 20.0219 9.34837 20.1112 8.97138 20.053C8.58739 19.9938 8.27138 19.6196 8.21776 19.1123C8.16704 18.6324 8.29183 18.1808 8.64112 17.8234C8.90023 17.5583 9.21 17.5025 9.53902 17.6658C9.75828 17.7746 10.0157 17.8731 10.1603 18.0531C10.5867 18.5838 10.5119 19.2808 10.017 19.7707Z"
      fill="#F6FFFD" />
    <path
      d="M14.925 21.6942C14.9867 22.0215 15.0739 22.3317 15.0847 22.6445C15.0975 23.0123 14.7079 23.4203 14.2836 23.5576C13.9397 23.6688 13.5377 23.5231 13.2909 23.1977C12.7928 22.541 13.0161 21.5927 13.7554 21.2253C14.2087 21 14.6543 21.1738 14.925 21.6942Z"
      fill="#F6FFFD" />
    <path
      d="M12.3865 21.2317C12.4326 20.8975 12.484 20.5588 12.5605 20.226C12.7426 19.4345 13.4262 18.8769 14.1812 18.8357C15.179 18.7813 15.9094 19.3731 16.1344 20.1485C16.3052 20.7373 16.2508 21.3042 15.9804 21.8526C15.9495 21.9153 15.9234 21.9803 15.8936 22.0612C15.8604 21.9629 15.8016 21.8476 15.8017 21.7324C15.802 21.2716 15.7806 20.817 15.6284 20.3754C15.2859 19.3813 14.4025 19.1173 13.5557 19.7431C13.1972 20.0081 12.9697 20.3531 12.777 20.743C12.6881 20.923 12.5299 21.0687 12.3865 21.2317Z"
      fill="#FDFFFF" />
    <path
      d="M4.67971 23.2486C4.35157 23.2549 4.31068 23.216 4.30982 22.897C4.30789 22.1815 4.78419 21.6737 5.55071 21.6155C5.99891 21.5815 6.45526 21.5612 6.8538 21.8492C7.45539 22.2839 7.59123 23.1901 7.12788 23.7306C7.04122 23.8317 6.9395 23.9491 6.88845 23.6651C6.84126 23.3223 6.82101 23.009 6.74263 22.7111C6.63433 22.2993 6.31891 22.0879 5.90104 22.1312C5.50261 22.1724 5.1764 22.3554 4.97271 22.7175C4.87357 22.8937 4.77729 23.0715 4.67971 23.2486Z"
      fill="#97E1ED" />
    <path
      d="M3.25654 23.4714C2.87874 23.7281 2.31903 23.5415 2.1767 22.9621C2.0948 22.6288 2.23082 22.2302 2.49145 22.0756C2.75621 21.9185 3.14847 21.9441 3.36176 22.15C3.70749 22.4838 3.73183 23.1128 3.25654 23.4714Z"
      fill="#F6FFFD" />
    <path
      d="M4.48778 20.0571C4.82407 19.7441 5.09375 19.7566 5.41338 20.056C5.61732 20.247 5.74559 20.4428 5.72544 20.7432C5.69491 21.1985 5.28134 21.4771 4.86979 21.2757C4.41219 21.0517 4.18539 20.6005 4.48778 20.0571Z"
      fill="#F6FFFD" />
    <path
      d="M20.4214 20.183C20.271 20.4253 20.0467 20.4257 19.8325 20.3765C19.5997 20.3231 19.4476 20.1314 19.4247 19.9118C19.4025 19.6986 19.4369 19.461 19.5147 19.2607C19.6085 19.0195 19.8361 18.942 20.0952 18.9851C20.3195 19.0224 20.4501 19.1673 20.5257 19.3671C20.6321 19.6484 20.5929 19.9164 20.4214 20.183Z"
      fill="#F6FFFD" />
    <path
      d="M4.698 23.2487C4.77729 23.0715 4.87357 22.8937 4.97271 22.7175C5.1764 22.3554 5.50261 22.1724 5.90104 22.1312C6.31891 22.0879 6.63432 22.2993 6.74262 22.7111C6.82101 23.009 6.84126 23.3223 6.8861 23.6481C6.84042 23.5802 6.77139 23.4971 6.75561 23.405C6.62561 22.646 5.90011 22.467 5.35541 22.8775C5.16005 23.0247 4.93033 23.1263 4.698 23.2487Z"
      fill="#FDFEFF" />
    <path
      d="M8.44975 20.6611C8.62361 20.8972 8.69128 21.1304 8.54682 21.3912C8.3604 21.7277 7.96691 21.7625 7.74584 21.4466C7.66885 21.3366 7.62251 21.1942 7.59909 21.0602C7.56013 20.8371 7.61709 20.6303 7.84213 20.5294C8.05958 20.4318 8.26878 20.4593 8.44975 20.6611Z"
      fill="#F6FFFD" />
    <path
      d="M11.7701 23.2503C11.4691 23.2137 11.2312 22.9164 11.2508 22.6255C11.2697 22.3446 11.5438 22.0659 11.7884 22.079C12.0817 22.0947 12.2795 22.3341 12.2813 22.6755C12.283 23.0257 12.1059 23.2327 11.7701 23.2503Z"
      fill="#F6FFFD" />
    <path
      d="M10.3169 21.6545C10.3907 21.432 10.471 21.2039 10.58 20.9904C10.736 20.6849 11.0162 20.5287 11.3435 20.546C11.6951 20.5645 11.8398 20.6081 11.9572 21.0754C11.7738 21.0303 11.5895 20.9495 11.3967 20.9106C11.1382 20.8586 10.9501 20.985 10.8166 21.2051C10.7483 21.3176 10.6831 21.437 10.5919 21.5288C10.5284 21.5926 10.4229 21.6147 10.3169 21.6545Z"
      fill="#FBFEFF" />
    <path
      d="M12.0496 21.2469C12.0836 21.2476 12.1197 21.263 12.1702 21.2815C12.1403 21.2769 12.096 21.2693 12.0496 21.2469Z"
      fill="#FBFEFF" />
    <path
      d="M11.9989 21.1884C12.0189 21.1896 12.0296 21.2005 12.0437 21.2236C12.03 21.2212 12.0109 21.2086 11.9989 21.1884Z"
      fill="#FBFEFF" />
  </g>
  <defs>
    <clipPath id="clip0_1_3">
      <rect width="60" height="30" fill="white" />
    </clipPath>
  </defs>
</svg>